<svg width="48" height="48" viewBox="0 0 48 48" fill="none" xmlns="http://www.w3.org/2000/svg">
<rect width="48" height="48" rx="6" fill="#EC1E37"/>
<path d="M23.998 8C19.649 8 19.107 8.021 17.405 8.093C15.696 8.177 14.54 8.442 13.52 8.838C12.4525 9.24102 11.4857 9.87202 10.687 10.687C9.86974 11.4838 9.2384 12.4511 8.838 13.52C8.442 14.54 8.177 15.696 8.093 17.405C8.016 19.108 8 19.649 8 23.998C8 28.347 8.021 28.889 8.093 30.591C8.177 32.295 8.442 33.456 8.838 34.476C9.24102 35.5435 9.87202 36.5103 10.687 37.309C11.4838 38.1263 12.4511 38.7576 13.52 39.158C14.54 39.549 15.701 39.819 17.405 39.903C19.108 39.98 19.649 39.996 23.998 39.996C28.347 39.996 28.889 39.975 30.591 39.903C32.295 39.819 33.456 39.548 34.476 39.158C35.5435 38.755 36.5103 38.124 37.309 37.309C38.1273 36.5131 38.7588 35.5455 39.158 34.476C39.549 33.456 39.819 32.295 39.903 30.591C39.98 28.888 39.996 28.347 39.996 23.998C39.996 19.649 39.975 19.107 39.903 17.405C39.819 15.701 39.548 14.534 39.158 13.52C38.755 12.4525 38.124 11.4857 37.309 10.687C36.5131 9.86869 35.5455 9.23718 34.476 8.838C33.456 8.442 32.295 8.177 30.591 8.093C28.888 8.016 28.347 8 23.998 8ZM23.998 10.88C28.269 10.88 28.779 10.901 30.467 10.973C32.024 11.046 32.872 11.306 33.435 11.526C34.131 11.7829 34.761 12.1919 35.279 12.723C35.8092 13.2388 36.2166 13.8673 36.471 14.562C36.691 15.125 36.951 15.973 37.024 17.53C37.096 19.218 37.117 19.729 37.117 23.999C37.117 28.269 37.096 28.78 37.018 30.468C36.934 32.025 36.674 32.873 36.455 33.436C36.152 34.187 35.814 34.712 35.256 35.28C34.7362 35.8078 34.1067 36.2148 33.412 36.472C32.856 36.692 31.996 36.952 30.433 37.025C28.736 37.097 28.236 37.118 23.954 37.118C19.672 37.118 19.173 37.097 17.474 37.019C15.917 36.935 15.058 36.675 14.495 36.456C13.735 36.153 13.214 35.815 12.656 35.257C12.093 34.694 11.735 34.158 11.459 33.413C11.235 32.857 10.979 31.997 10.896 30.434C10.839 28.757 10.812 28.237 10.812 23.975C10.812 19.715 10.839 19.194 10.896 17.496C10.979 15.933 11.235 15.075 11.459 14.517C11.735 13.756 12.094 13.236 12.656 12.673C13.213 12.116 13.735 11.756 14.495 11.474C15.058 11.255 15.896 10.995 17.459 10.917C19.156 10.856 19.656 10.834 23.932 10.834L23.998 10.88ZM23.998 15.787C22.9193 15.7866 21.8512 15.9988 20.8546 16.4114C19.8579 16.824 18.9524 17.4289 18.1897 18.1917C17.4269 18.9544 16.822 19.8599 16.4094 20.8566C15.9968 21.8532 15.7846 22.9213 15.785 24C15.7846 25.0787 15.9968 26.1468 16.4094 27.1434C16.822 28.1401 17.4269 29.0456 18.1897 29.8083C18.9524 30.5711 19.8579 31.176 20.8546 31.5886C21.8512 32.0012 22.9193 32.2134 23.998 32.213C25.0767 32.2134 26.1448 32.0012 27.1414 31.5886C28.1381 31.176 29.0436 30.5711 29.8063 29.8083C30.5691 29.0456 31.174 28.1401 31.5866 27.1434C31.9992 26.1468 32.2114 25.0787 32.211 24C32.2114 22.9213 31.9992 21.8532 31.5866 20.8566C31.174 19.8599 30.5691 18.9544 29.8063 18.1917C29.0436 17.4289 28.1381 16.824 27.1414 16.4114C26.1448 15.9988 25.0767 15.7866 23.998 15.787V15.787ZM23.998 29.333C21.05 29.333 18.665 26.948 18.665 24C18.665 21.052 21.05 18.667 23.998 18.667C26.946 18.667 29.331 21.052 29.331 24C29.331 26.948 26.946 29.333 23.998 29.333ZM34.462 15.459C34.4615 15.9687 34.2586 16.4573 33.8981 16.8175C33.5375 17.1777 33.0487 17.38 32.539 17.38C32.287 17.38 32.0375 17.3304 31.8046 17.2339C31.5718 17.1375 31.3603 16.9961 31.1821 16.8179C31.0039 16.6397 30.8625 16.4282 30.7661 16.1954C30.6696 15.9625 30.62 15.713 30.62 15.461C30.62 15.209 30.6696 14.9595 30.7661 14.7266C30.8625 14.4938 31.0039 14.2823 31.1821 14.1041C31.3603 13.9259 31.5718 13.7845 31.8046 13.6881C32.0375 13.5916 32.287 13.542 32.539 13.542C33.596 13.542 34.462 14.402 34.462 15.459V15.459Z" fill="white"/>
</svg>
