<svg width="48" height="48" viewBox="0 0 48 48" fill="none" xmlns="http://www.w3.org/2000/svg">
<rect width="48" height="48" rx="6" fill="#EC1E37"/>
<g clip-path="url(#clip0)">
<path d="M16.3553 37.9995V19.7827H10.3531V37.9995H16.3553ZM13.355 17.294C15.448 17.294 16.7508 15.8951 16.7508 14.147C16.7118 12.3595 15.4481 10.9995 13.3947 10.9995C11.3416 10.9995 9.99902 12.3595 9.99902 14.147C9.99902 15.8952 11.3015 17.294 13.3158 17.294H13.3548H13.355ZM19.6774 37.9995H25.6795V27.8263C25.6795 27.2819 25.7185 26.738 25.877 26.3488C26.3109 25.261 27.2985 24.1343 28.9565 24.1343C31.1285 24.1343 31.9973 25.8049 31.9973 28.2538V37.9994H37.9991V27.554C37.9991 21.9585 35.038 19.355 31.0889 19.355C27.851 19.355 26.4294 21.1808 25.6396 22.4243H25.6796V19.7823H19.6775C19.7563 21.4916 19.6775 37.9991 19.6775 37.9991L19.6774 37.9995Z" fill="white"/>
</g>
<defs>
<clipPath id="clip0">
<rect x="10" y="11" width="28" height="27" fill="white"/>
</clipPath>
</defs>
</svg>
