<svg width="24" height="24" viewBox="0 0 24 24" fill="none" xmlns="http://www.w3.org/2000/svg">
<path d="M11.2667 3.4C11.52 3.65333 11.9333 3.68 12.2267 3.45333C13.7333 2.25333 15.5333 1.6 17.3333 1.6C19.1333 1.6 20.9333 2.25333 22.4533 3.45333C22.7333 3.68 23.1467 3.65333 23.4133 3.4L23.4667 3.33333C23.5368 3.2621 23.5916 3.17727 23.6278 3.08407C23.6639 2.99087 23.6807 2.89126 23.6769 2.79137C23.6732 2.69147 23.649 2.59339 23.606 2.50316C23.563 2.41293 23.5019 2.33245 23.4267 2.26667C21.6533 0.76 19.4933 0 17.3333 0C15.1733 0 13.0133 0.76 11.24 2.26667C10.92 2.54667 10.8933 3.02667 11.2 3.33333L11.2667 3.4ZM13.5333 4.41333C13.2 4.68 13.1867 5.18667 13.48 5.48L13.5333 5.53333C13.8 5.8 14.2 5.8 14.4933 5.58667C15.3333 4.94667 16.3333 4.66667 17.3333 4.66667C18.3333 4.66667 19.3333 4.94667 20.1733 5.57333C20.4667 5.8 20.88 5.78667 21.1333 5.52L21.1867 5.46667C21.4933 5.16 21.4667 4.66667 21.1333 4.4C20.0267 3.54667 18.68 3.06667 17.3333 3.06667C15.9867 3.06667 14.64 3.54667 13.5333 4.41333ZM21.3333 13.3333H18.6667V9.33333C18.6667 8.6 18.0667 8 17.3333 8C16.6 8 16 8.6 16 9.33333V13.3333H2.66667C1.2 13.3333 0 14.5333 0 16V21.3333C0 22.8 1.2 24 2.66667 24H21.3333C22.8 24 24 22.8 24 21.3333V16C24 14.5333 22.8 13.3333 21.3333 13.3333ZM6.66667 20H4V17.3333H6.66667V20ZM11.3333 20H8.66667V17.3333H11.3333V20ZM16 20H13.3333V17.3333H16V20Z" fill="#78788C"/>
</svg>
