<svg width="248" height="151" viewBox="0 0 248 151" fill="none" xmlns="http://www.w3.org/2000/svg">
<path d="M129.369 151C69.0056 151 20.0712 145.965 20.0712 139.753C20.0712 133.863 64.0624 129.031 120.074 128.545C123.775 131.473 127.505 134.375 131.667 136.496C137.679 139.56 144.231 140.824 150.923 140.824C160.49 140.823 170.34 138.239 179.285 134.636C182.351 133.401 185.434 132.001 188.269 130.277C218.579 132.276 238.668 135.773 238.668 139.753C238.668 145.965 189.733 151 129.369 151Z" fill="#DCE8F7"/>
<path d="M188.269 130.277C185.024 130.063 181.667 129.866 178.199 129.688L172.837 91.7511C173.89 91.3836 174.959 91.0676 176.052 90.825C178.026 90.388 180.021 90.2034 182.025 90.2034C187.068 90.2034 192.165 91.3738 197.091 92.6395C199.472 93.2513 201.909 93.887 204.348 94.227C203.39 100.323 202.207 107.848 201.193 114.295C199.81 116.999 198.651 119.862 196.948 122.375C194.72 125.664 191.674 128.205 188.269 130.277ZM173.022 129.438C166.375 129.14 159.386 128.908 152.129 128.75L163.55 115.495L164.335 114.563L166.279 104.111L166.279 104.112L166.621 102.272C167.883 108.903 169.703 116.471 171.16 122.206C171.808 124.864 172.448 127.377 173.022 129.438ZM146.514 128.643C142.319 128.575 138.041 128.532 133.702 128.514C134.215 115.863 133.185 106.411 131.853 99.9843C131.757 99.5086 131.657 99.0463 131.556 98.5999C133.025 99.169 134.538 99.623 136.07 99.9535C138.495 100.477 140.959 100.719 143.427 100.719C148.709 100.719 154.014 99.6089 159.014 97.7651C158.462 102.121 157.988 107.308 157.601 112.283C152.078 120.05 147.369 127.098 147.369 127.098L147.657 127.239L146.514 128.643ZM120.074 128.545C114.723 124.312 109.435 120.026 102.999 117.977C100.355 117.135 97.5812 116.717 94.807 116.717C91.3149 116.717 87.8231 117.38 84.5869 118.696C79.6965 120.684 75.1278 124.161 69.8686 124.161C69.7985 124.161 69.7287 124.16 69.6586 124.159C62.8145 124.038 57.6779 118.112 53.4906 112.688L53.474 112.616C59.2071 118.725 66.525 123.54 66.525 123.54C66.525 123.54 85.7611 104.191 70.6672 79.1916C70.9701 78.8709 71.3168 78.5407 71.6895 78.212L75.4134 82.9567L77.3062 78.3597L75.3891 75.5275C75.7745 75.3045 76.1252 75.1239 76.4187 75.0001L76.1552 74.5928L81.3124 76.522L78.5744 70.7658L75.4643 69.301C75.6133 69.0306 75.7568 68.7953 75.8895 68.6056L71.2832 66.3063C70.9965 65.6587 70.7286 65.04 70.7286 65.04L71.5395 63.1531C70.169 62.2538 68.9818 61.1399 68.1189 59.6226C67.7549 60.3412 67.3048 61.2963 66.8359 62.4537C64.317 63.9398 63.06 65.1931 62.0857 67.5564C60.87 65.8513 59.7323 64.0806 58.7397 62.2002C58.9096 64.8441 57.4397 67.1564 56.2767 69.4191C52.281 77.1918 49.4211 83.1417 47.8251 88.2575L42.9563 67.2628C49.7989 62.1926 54 54.308 56.9762 46.3221C59.9525 38.3361 61.939 29.9704 65.5291 22.2419C69.2219 14.2925 75.8808 6.42054 84.6343 6.27718C84.7189 6.27573 84.8035 6.27536 84.8877 6.27536C95.0073 6.27536 101.882 16.2141 110.209 22.3316C105.828 26.2828 102.288 31.1694 99.9137 36.5749C98.6621 39.4244 97.7146 42.4408 95.9798 45.0242C94.2467 47.6048 91.4931 49.761 88.3885 49.761C88.3853 49.761 88.3816 49.761 88.3784 49.761L89.8208 55.8934C91.9457 55.3279 93.8664 54.9948 95.6508 54.9948C100.778 54.9948 104.77 57.7477 109.191 65.6514C109.157 65.6565 109.123 65.6623 109.089 65.6685C107.735 65.9128 106.523 67.0963 106.107 68.5799C105.937 69.1837 105.896 69.8535 106.114 70.4226C106.436 71.2611 107.247 71.7136 108.043 71.9011C108.839 72.0886 109.672 72.0785 110.455 72.3203C110.645 72.3786 110.833 72.4568 111.013 72.5546L105.091 81.1259L106.16 84.0475V84.0471C106.166 84.0406 106.35 83.8306 106.656 83.4773L106.683 83.4462L106.69 83.4382C107.758 82.2051 110.217 79.3448 111.933 77.1726L113.647 78.7152C113.647 78.7152 116.169 80.5974 113.449 86.8329C113.183 87.4433 113.787 87.7818 114.485 88.0924L114.511 88.104C108.71 93.1007 103.841 101.596 103.841 101.596L123.077 112.645L124.03 111.943L124.043 111.954L124.461 111.627C124.461 111.627 121.086 104.311 115.927 101.362C114.083 100.264 112.77 100.165 112.355 100.165C112.264 100.165 112.216 100.169 112.216 100.169C112.216 100.169 112.229 100.167 112.256 100.163C112.981 100.041 113.927 99.6179 114.944 99.047C116.517 98.1951 118.81 96.7025 121.926 94.0952C127.096 106.782 130.898 123.354 132.018 128.508C131.139 128.507 130.253 128.506 129.369 128.506C126.238 128.506 123.139 128.519 120.074 128.545ZM95.2448 79.8574L95.3923 81.0257L106.16 84.0475L105.091 81.1259C105.091 81.1259 104.366 79.9841 95.2448 79.8574ZM217.986 102.105C218.055 100.717 218.093 99.3413 218.091 98.0026C218.09 95.6009 217.96 93.3034 217.654 91.2225C219.798 89.7418 221.748 87.9053 223.59 86.0578C228.86 80.7711 233.847 74.9621 236.61 68.0227C237.749 65.1609 238.461 62.0695 238.629 58.9789C242.132 61.8494 245.384 65.2557 246.964 69.5016C249.41 76.0767 247.319 83.7629 242.864 89.1781C238.409 94.5933 231.914 97.9852 225.221 100.061C222.865 100.792 220.407 101.411 217.986 102.105ZM146.649 21.1692C144.018 21.1692 141.368 20.7557 138.809 20.0422C143.92 15.8303 148.27 10.7015 153.698 6.90747C160.084 2.44368 167.856 -1.52588e-05 175.643 -1.52588e-05C175.775 -1.52588e-05 175.906 0.000717163 176.038 0.00215149C180.46 0.0492249 185.062 0.954285 188.52 3.71401C190.414 5.22511 191.767 7.07401 192.775 9.14299C190.035 8.16299 187.103 7.67678 184.193 7.67678C184.145 7.67678 184.096 7.67713 184.048 7.67713C178.1 7.71044 172.269 9.65742 167.098 12.6C162.5 15.2156 158.279 18.6513 153.227 20.2131C151.091 20.873 148.876 21.1692 146.649 21.1692Z" fill="#EFF6FC"/>
<path d="M150.923 140.824C144.231 140.824 137.679 139.56 131.667 136.496C127.505 134.375 123.775 131.473 120.074 128.545C123.139 128.519 126.238 128.506 129.369 128.506C130.253 128.506 131.139 128.507 132.018 128.508C132.241 129.535 132.358 130.109 132.358 130.109L133.621 130.276C133.652 129.682 133.679 129.095 133.702 128.514C138.041 128.532 142.319 128.575 146.513 128.643L146.225 128.996L149.341 131.323L151.329 129.039L151.716 129.229L152.129 128.75C159.386 128.908 166.375 129.14 173.022 129.438C173.199 130.077 173.371 130.673 173.534 131.216L173.981 131.177L174.776 134.22L178.489 133.072L177.979 130.824L178.355 130.791L178.199 129.688C181.667 129.866 185.024 130.063 188.269 130.277C185.434 132.001 182.351 133.401 179.285 134.636C170.34 138.239 160.49 140.823 150.923 140.824Z" fill="#D1E2F5"/>
<path d="M238.629 58.9789C238.603 58.9579 238.578 58.9369 238.552 58.916C234 55.1994 228.897 52.162 223.461 49.9333C215.474 46.6584 206.167 44.6912 201.073 37.7142C195.238 29.7239 196.887 17.5895 192.775 9.14302C195.59 10.1505 198.202 11.6794 200.373 13.7379C204.261 17.424 206.532 22.5156 210.165 26.4544C217.556 34.4683 229.994 37.1469 235.707 46.4354C238.006 50.1726 238.869 54.5752 238.629 58.9789ZM122.551 27.0127C121.888 27.0127 121.222 26.9732 120.554 26.8907C116.728 26.4193 113.364 24.6494 110.209 22.3317C110.967 21.6482 111.749 20.9929 112.556 20.3677C115.941 17.7419 119.965 15.5846 124.23 15.5846C124.375 15.5846 124.52 15.5871 124.665 15.5922C128.596 15.7286 132.19 17.6945 135.872 19.0799C136.833 19.4416 137.814 19.7645 138.809 20.0422C138.784 20.0625 138.76 20.0824 138.735 20.103C134.112 23.8992 128.444 27.0127 122.551 27.0127Z" fill="#DCE8F7"/>
<path d="M143.427 100.719C140.959 100.719 138.495 100.477 136.07 99.9535C134.538 99.623 133.025 99.169 131.555 98.5999C131.347 97.6843 131.129 96.8314 130.903 96.0335C129.537 91.1284 128.112 89.1618 128.091 89.1329C128.157 89.0822 128.221 89.0315 128.283 88.9812C128.71 88.6347 128.944 88.1166 128.944 87.5816C128.944 87.4252 128.923 87.267 128.882 87.1113C128.478 85.6013 124.201 82.1646 124.151 79.6887C124.1 77.1487 123.935 75.0601 123.606 73.405C125.693 73.9578 129.865 74.7904 132.442 75.2889C132.586 75.3165 132.729 75.3298 132.869 75.3298C133.925 75.3302 134.865 74.5783 135.069 73.4998C135.216 72.7214 134.942 71.9235 134.349 71.3993L126.493 64.4578L125.456 65.0172L129.406 71.3613L126.782 70.5468C126.967 70.1576 127.077 69.7307 127.083 69.2825C127.106 67.77 126.024 66.5833 124.929 65.7531C124.082 65.1105 123.09 64.4173 122.89 63.299C122.933 63.2953 122.976 63.2935 123.019 63.2935C123.113 63.2935 123.208 63.3029 123.302 63.3261C124.106 63.5216 123.81 65.0172 125.456 65.0172L126.493 64.4578L126.95 61.5612L124.985 57.8233L123.464 57.1688C123.424 57.1416 123.368 57.1297 123.304 57.1297C123.002 57.1297 122.514 57.3921 122.603 57.6007C122.637 57.681 122.675 57.7697 122.714 57.8653C122.455 57.5884 122.161 57.3422 121.871 57.1188C120.638 56.1688 119.331 55.3391 117.967 54.6414C117.472 54.388 116.848 54.1183 116.248 54.1183C115.919 54.1183 115.597 54.1994 115.306 54.409C114.766 54.8 114.658 55.5599 114.427 56.1779C113.532 58.5669 111.477 58.7946 109.936 60.3597C109.535 60.7673 109.207 61.344 109.265 61.9385C109.349 62.8034 110.163 63.278 110.574 64.002C110.683 64.1925 110.766 64.4147 110.748 64.6446C110.718 65.0276 110.415 65.3307 110.094 65.4646C109.805 65.5855 109.495 65.6044 109.191 65.6514C104.77 57.7476 100.778 54.9948 95.6507 54.9948C93.8663 54.9948 91.9456 55.3279 89.8207 55.8933L88.3783 49.761C88.3815 49.761 88.3852 49.761 88.3884 49.761C91.493 49.761 94.2466 47.6047 95.9797 45.0242C97.7145 42.4408 98.662 39.4244 99.9136 36.5748C102.288 31.1694 105.828 26.2828 110.209 22.3316C113.363 24.6493 116.728 26.4193 120.554 26.8906C121.221 26.9732 121.888 27.0126 122.551 27.0126C128.444 27.0126 134.112 23.8992 138.735 20.103C138.76 20.0823 138.784 20.0624 138.809 20.0421C141.368 20.7557 144.018 21.1692 146.649 21.1692C148.876 21.1692 151.09 20.873 153.227 20.213C158.279 18.6512 162.5 15.2156 167.098 12.6C172.269 9.6574 178.1 7.71042 184.047 7.67712C184.096 7.67712 184.145 7.67677 184.193 7.67677C187.103 7.67677 190.035 8.16296 192.775 9.14297C196.887 17.5894 195.238 29.7238 201.073 37.7141C206.167 44.6911 215.474 46.6584 223.461 49.9333C228.897 52.1619 234 55.1993 238.552 58.9159C238.578 58.9369 238.603 58.9579 238.629 58.9789C238.461 62.0695 237.749 65.1609 236.61 68.0227C233.847 74.962 228.86 80.7711 223.59 86.0578C221.748 87.9052 219.797 89.7418 217.654 91.2225C217.495 90.1378 217.288 89.1115 217.027 88.1612C217.023 88.1481 217.019 88.1351 217.016 88.1221C217.015 88.1181 217.014 88.1148 217.013 88.1109C217.012 88.1076 217.011 88.1033 217.01 88.0996C217.008 88.0942 217.006 88.0862 217.004 88.0808C217.004 88.0779 217.003 88.0747 217.002 88.0718C217 88.0645 216.998 88.0587 216.996 88.0518C216.995 88.0493 216.995 88.0471 216.994 88.045C216.992 88.037 216.99 88.028 216.987 88.02C216.083 84.8222 213.334 82.8195 213.227 82.7427C213.225 82.7413 213.224 82.7402 213.224 82.7402C213.224 82.7402 216.042 75.8722 216.044 70.4218C216.044 69.8622 216.015 69.318 215.949 68.7974C216.925 67.6628 217.557 65.8437 217.545 63.0741C217.529 59.3221 216.279 55.0498 215.723 53.5974C214.903 51.4542 213.815 51.2366 213.407 51.2366C213.304 51.2366 213.244 51.2507 213.244 51.2507L210.136 51.9404C202.401 63.0926 204.262 65.0211 205.618 67.1303L203.883 70.3332C203.49 70.9443 203.252 72.6147 203.731 73.162C204.365 73.8872 205.223 74.5142 205.347 75.0297L206.16 82.6518C206.16 82.6533 206.16 82.6547 206.16 82.6566C206.116 82.9607 205.357 87.7991 204.347 94.2269C201.909 93.887 199.472 93.2513 197.091 92.6395C192.165 91.3738 187.068 90.2034 182.025 90.2034C180.021 90.2034 178.025 90.388 176.052 90.825C174.959 91.0675 173.89 91.3836 172.837 91.751L172.575 89.8989C172.575 89.8985 174.566 65.0121 170.057 62.9561C167.437 62.1926 166.369 61.5761 165.022 61.5761C164.61 61.5761 164.172 61.6336 163.655 61.7622C162.663 62.0087 159.688 63.3225 158.942 63.8116C157.966 64.4517 157.267 65.6923 157.265 66.8613C157.265 66.8657 157.265 66.8704 157.265 66.8751C157.287 73.99 162.084 80.2896 162.085 83.2626C162.086 83.3249 162.083 83.3857 162.079 83.445L161.232 87.6011C160.398 88.7983 159.653 92.7253 159.014 97.765C154.014 99.6088 148.709 100.719 143.427 100.719ZM165.299 88.4251L161.232 87.6011L164.313 88.2253L165.299 88.4247V88.4251ZM207.156 82.6779C206.57 82.6573 206.16 82.6518 206.16 82.6518L207.119 82.6638C207.128 82.6681 207.14 82.6728 207.156 82.6779ZM123.911 62.3353C123.847 62.3353 123.762 62.2998 123.651 62.2125C123.526 62.1133 123.337 62.0692 123.121 62.0692C123.07 62.0692 123.018 62.0717 122.965 62.0764C123.136 61.373 123.456 60.6757 123.52 59.9654C123.751 60.6001 123.963 61.2104 124.096 61.6402C124.096 61.6402 124.198 62.3353 123.911 62.3353Z" fill="#D1E2F5"/>
<path d="M46.5337 116.87C46.5337 116.87 48.2957 96.6717 42.8113 87.9465C37.7867 79.9537 30.0288 76.799 14.2972 71.9352C12.0471 71.2397 9.58835 70.7376 7.82587 68.7884C9.44458 73.1255 10.3365 77.6059 11.1798 82.0516C17.9954 117.986 46.5337 116.87 46.5337 116.87Z" fill="#F1487C"/>
<path d="M29.3206 107.638C30.6683 107.754 32.0233 107.942 33.3814 108.164C34.7393 108.386 36.1014 108.678 37.4643 109.027C38.8261 109.386 40.1908 109.797 41.5446 110.325C42.8981 110.851 44.2476 111.463 45.5559 112.245L45.1423 112.525C44.8925 110.445 44.6062 108.355 44.3134 106.269C44.0075 104.181 43.7057 102.094 43.3528 100.005C43.0072 97.9169 42.6447 95.828 42.2275 93.7398C41.815 91.6516 41.353 89.5652 40.805 87.4803L41.3042 89.0302C41.4683 89.5479 41.6035 90.0695 41.7546 90.5894C41.9068 91.1097 42.0431 91.6313 42.1761 92.153C42.3092 92.6754 42.4538 93.1971 42.5687 93.7206C43.0745 95.8127 43.4927 97.9096 43.8922 100.006C44.279 102.103 44.6282 104.199 44.9366 106.294C45.2511 108.39 45.5302 110.481 45.7659 112.576L45.8295 113.142L45.3523 112.856C44.0907 112.1 42.7817 111.466 41.4564 110.925C40.13 110.388 38.7888 109.922 37.4411 109.525C36.0938 109.119 34.7414 108.78 33.3876 108.464C32.033 108.147 30.6777 107.891 29.3206 107.638Z" fill="#F03960"/>
<path d="M24.9323 101.249C26.3075 101.207 27.6989 101.252 29.0951 101.323C30.4934 101.413 31.9007 101.559 33.3149 101.783C34.7291 102.006 36.1502 102.307 37.5709 102.711C38.9898 103.129 40.4131 103.634 41.8056 104.332L41.4148 104.662C41.1527 103.251 40.8574 101.833 40.5761 100.418L39.6894 96.1704C39.3857 94.7548 39.0777 93.3393 38.7599 91.9238C38.4566 90.5065 38.1081 89.0931 37.7864 87.6743C38.2397 89.075 38.6486 90.484 39.0491 91.8948C39.4406 93.3057 39.8162 94.7197 40.1615 96.1363C40.5147 97.5522 40.8426 98.9707 41.1571 100.39C41.477 101.809 41.7611 103.228 42.0417 104.653L42.1552 105.23L41.6505 104.984C40.3054 104.325 38.9226 103.802 37.5308 103.387C36.139 102.961 34.7382 102.637 33.3373 102.361C31.9361 102.089 30.5339 101.871 29.1334 101.693C27.7308 101.5 26.3335 101.378 24.9323 101.249Z" fill="#F03960"/>
<path d="M19.5375 95.4314C20.9985 95.2844 22.4842 95.241 23.9773 95.2316C25.4732 95.2413 26.981 95.313 28.4975 95.4568C30.0148 95.5969 31.5342 95.8054 33.0669 96.0823C34.5979 96.3825 36.1687 96.8035 37.6834 97.6133L37.4039 98.1767C36.2164 96.915 35.4117 95.3521 34.757 93.8265C34.1056 92.2941 33.5 90.7591 32.9375 89.2067C32.3692 87.6576 31.8534 86.0936 31.3693 84.5301C30.8939 82.965 30.4059 81.4072 29.8409 79.8606C30.5324 81.367 31.0834 82.9248 31.6531 84.4678C32.2073 86.0151 32.7824 87.5512 33.3862 89.08C33.9946 90.6052 34.6203 92.1323 35.2873 93.63C35.9554 95.1132 36.7149 96.5747 37.7889 97.6948L39.176 99.1404L37.5095 98.2578C36.0873 97.5047 34.5842 97.071 33.0814 96.7698C31.5743 96.461 30.0581 96.2344 28.5499 96.0342C27.0407 95.8412 25.5339 95.6953 24.0322 95.5987C22.5273 95.4846 21.0335 95.4549 19.5375 95.4314Z" fill="#F03960"/>
<path d="M20.5123 90.2215C21.4556 90.1766 22.4108 90.1973 23.3678 90.2219C24.3261 90.2592 25.2895 90.3247 26.2569 90.4297C27.2239 90.5274 28.1946 90.6628 29.1663 90.825C30.1384 90.9811 31.1123 91.1841 32.0858 91.4014L31.8783 91.9777C31.433 91.4597 31.0581 90.9253 30.6807 90.3859C30.309 89.8457 29.9475 89.3009 29.5904 88.7542C28.8825 87.6566 28.1989 86.5455 27.5291 85.4265C26.8603 84.3075 26.2063 83.179 25.569 82.0419C24.9425 80.8979 24.3084 79.7589 23.7218 78.5943L27.9397 85.1578C28.6432 86.2494 29.3478 87.3391 30.0657 88.4154C30.7779 89.4884 31.5147 90.5756 32.2894 91.5295L32.9198 92.305L32.0819 92.1059C31.1177 91.8764 30.1536 91.6805 29.1891 91.485C28.225 91.2964 27.2608 91.1277 26.2967 90.9706C25.3333 90.82 24.3691 90.6777 23.4054 90.5553C22.44 90.4206 21.4785 90.3298 20.5123 90.2215Z" fill="#F03960"/>
<path d="M14.5845 84.853C15.4031 84.6771 16.2576 84.6141 17.118 84.5833C17.9814 84.567 18.8568 84.609 19.736 84.7028C20.6148 84.7897 21.4977 84.9327 22.3796 85.0959C23.2618 85.2567 24.1434 85.4638 25.0231 85.6687L24.8232 86.2609C24.0728 85.4677 23.3236 84.6698 22.578 83.8574C21.841 83.0364 21.1118 82.1936 20.437 81.3008C19.7575 80.4124 19.1285 79.4838 18.5352 78.5375C17.954 77.5817 17.3837 76.6238 16.8585 75.6394C17.5029 76.5467 18.1219 77.4677 18.781 78.3546C19.4276 79.2503 20.0948 80.1242 20.7904 80.9652C21.4885 81.8037 22.2109 82.6142 22.96 83.4027L25.2126 85.7838L26.0108 86.6273L25.0123 86.3753C24.1375 86.1549 23.2635 85.9583 22.3908 85.7621C21.518 85.5684 20.6464 85.4019 19.7757 85.2538C18.9058 85.1137 18.0365 84.9957 17.1706 84.9265C16.3024 84.8433 15.4437 84.8349 14.5845 84.853Z" fill="#F03960"/>
<path d="M11.6162 79.1323C11.9429 78.9209 12.3308 78.8134 12.7274 78.7486C13.1262 78.6874 13.5428 78.6863 13.9644 78.7229C14.3863 78.7591 14.8129 78.8499 15.2394 78.9629C15.4529 79.0194 15.664 79.0958 15.8777 79.162L16.5117 79.4071L16.3571 80.0663L15.7767 79.7543C15.5807 79.6652 15.3846 79.5649 15.1862 79.4835C14.7895 79.3209 14.3869 79.1765 13.9821 79.0834C13.5776 78.99 13.1702 78.9307 12.7699 78.9303C12.3717 78.9339 11.9727 78.9774 11.6162 79.1323Z" fill="#F03960"/>
<path d="M46.4557 116.877C46.0703 115.755 45.6795 114.643 45.2555 113.545C44.8365 112.446 44.3676 111.367 43.8926 110.297C42.9097 108.167 41.8266 106.091 40.6105 104.093C39.3995 102.093 38.0991 100.151 36.742 98.2433C35.4088 96.3579 33.9299 94.5771 32.3121 92.944C29.081 89.6633 25.4519 86.9057 21.7568 84.2977C19.9109 82.9744 18.0434 81.6212 16.323 80.0011C15.4649 79.1927 14.6476 78.3126 13.9254 77.3449C13.2057 76.3769 12.5865 75.3208 12.1206 74.2148C12.1003 74.166 12.1161 74.116 12.1558 74.1023C12.194 74.0892 12.2409 74.1153 12.2625 74.1602C13.2903 76.3034 14.8686 78.103 16.591 79.5819C18.3202 81.0738 20.1956 82.2967 22.0759 83.5269C25.8484 85.9861 29.6113 88.6373 33.0666 91.8962C34.7892 93.5232 36.4478 95.2935 37.9256 97.2445C39.3799 99.1715 40.7132 101.218 41.8844 103.355C44.2397 107.617 45.9369 112.275 46.6115 116.863C46.6191 116.914 46.5891 116.954 46.545 116.952C46.5067 116.95 46.4698 116.918 46.4557 116.877Z" fill="#F03960"/>
<path d="M66.525 123.54C66.525 123.54 49.6503 112.437 47.0753 102.559C44.7161 93.5094 48.1443 85.2389 56.2767 69.419C57.4397 67.1564 58.9096 64.8441 58.7397 62.2002C60.8556 66.2089 63.6305 69.7159 66.4155 73.1613C88.9261 101.011 66.525 123.54 66.525 123.54Z" fill="#3F4AA7"/>
<path d="M72.4132 103.804C71.4853 104.973 70.6075 106.192 69.7529 107.434C68.899 108.677 68.0951 109.967 67.3352 111.293C66.5829 112.623 65.8696 113.989 65.254 115.418C64.6369 116.845 64.0892 118.324 63.7039 119.874L64.2309 119.711C62.8193 118.217 61.4267 116.687 60.0425 115.154C58.6666 113.609 57.2879 112.067 55.9467 110.484C54.6008 108.907 53.2665 107.315 51.9745 105.68C50.6788 104.048 49.4215 102.377 48.2311 100.637L49.047 102.005C49.3214 102.46 49.6207 102.894 49.9066 103.34C50.1922 103.786 50.4908 104.221 50.792 104.653C51.0935 105.085 51.3863 105.527 51.7019 105.946C52.9303 107.656 54.2284 109.297 55.5403 110.924C56.862 112.54 58.2119 114.125 59.591 115.676C60.9673 117.233 62.3656 118.758 63.8004 120.251L64.1872 120.653L64.3275 120.087C64.698 118.592 65.1983 117.133 65.7825 115.719C66.3703 114.307 67.0239 112.925 67.7354 111.583C68.4407 110.235 69.2002 108.924 69.9789 107.625C70.7579 106.327 71.5832 105.065 72.4132 103.804Z" fill="#4D51AC"/>
<path d="M70.8089 96.2677C69.7381 97.3599 68.7226 98.5198 67.7241 99.7011C66.7369 100.894 65.7872 102.13 64.8921 103.42C63.9959 104.708 63.1551 106.052 62.3937 107.459C61.6443 108.873 60.9582 110.344 60.4445 111.91L60.994 111.798C60.1054 110.708 59.2371 109.588 58.3601 108.481L55.7608 105.123C54.9004 103.997 54.0437 102.868 53.1938 101.731C52.3323 100.604 51.5077 99.4434 50.6589 98.3012C51.3946 99.5397 52.1704 100.747 52.9534 101.948C53.744 103.143 54.5487 104.326 55.3784 105.486C56.2019 106.652 57.0456 107.799 57.9006 108.936C58.7516 110.078 59.6286 111.189 60.5139 112.302L60.8722 112.753L61.063 112.189C61.572 110.686 62.213 109.236 62.9439 107.846C63.667 106.449 64.4753 105.108 65.3205 103.797C66.1686 102.487 67.0593 101.211 67.9797 99.9614C68.8893 98.6998 69.8505 97.4877 70.8089 96.2677Z" fill="#4D51AC"/>
<path d="M70.404 88.2669C69.1879 89.3642 68.0329 90.5466 66.8988 91.7554C65.7771 92.9787 64.6937 94.2498 63.6601 95.5734C62.6222 96.8948 61.6361 98.2607 60.6918 99.6795C59.7674 101.112 58.906 102.651 58.3858 104.386L59.0303 104.509C58.9555 102.759 58.3601 101.134 57.6805 99.6549C56.9925 98.1734 56.2688 96.7279 55.498 95.3066C54.7349 93.8831 53.9208 92.4925 53.0828 91.1277C52.2369 89.7694 51.4065 88.406 50.643 86.9857C51.2804 88.4841 52.0634 89.899 52.8207 91.3206C53.5933 92.7318 54.3412 94.1531 55.0624 95.5933C55.7764 97.0352 56.4792 98.492 57.1288 99.964C57.7661 101.428 58.3178 102.954 58.3684 104.523L58.4342 106.549L59.013 104.645C59.5068 103.021 60.3079 101.528 61.2106 100.118C62.11 98.6998 63.0803 97.3256 64.065 95.9741C65.0555 94.6263 66.0804 93.31 67.1396 92.028C68.188 90.7327 69.2927 89.4986 70.404 88.2669Z" fill="#4D51AC"/>
<path d="M65.6584 85.8265C64.9119 86.5661 64.2066 87.3561 63.5035 88.15C62.8083 88.953 62.1316 89.7777 61.4823 90.6295C60.8276 91.4774 60.199 92.351 59.5906 93.243C58.9767 94.1303 58.3976 95.0488 57.83 95.9759L58.4305 96.1645C58.3676 95.481 58.2393 94.8442 58.1091 94.2024C57.9743 93.5645 57.8279 92.9324 57.6764 92.3024C57.3659 91.0448 57.0271 89.7994 56.6714 88.5598C56.315 87.3206 55.9401 86.0883 55.5461 84.8639C55.1386 83.6438 54.741 82.4213 54.2873 81.2208L56.1548 88.7271C56.4636 89.9768 56.7701 91.2265 57.0571 92.4791C57.3453 93.7241 57.6258 94.9988 57.7751 96.221L57.8962 97.2155L58.3752 96.4096C58.9265 95.4832 59.5035 94.5771 60.0811 93.6709C60.6635 92.7691 61.2618 91.88 61.8684 90.9981C62.4797 90.1205 63.0983 89.2477 63.7316 88.3875C64.3567 87.5186 65.0124 86.6794 65.6584 85.8265Z" fill="#4D51AC"/>
<path d="M66.0016 77.6708C65.2479 78.2276 64.5549 78.884 63.8814 79.5646C63.2173 80.2571 62.5886 80.9953 61.9976 81.7693C61.4007 82.5383 60.8444 83.3452 60.3043 84.1641C59.762 84.982 59.2559 85.828 58.7495 86.6712L59.3564 86.8754C59.3123 85.7726 59.2639 84.6681 59.2013 83.557C59.1258 82.4478 59.0275 81.3313 58.85 80.2278C58.679 79.1236 58.4393 78.0357 58.1587 76.9652C57.862 75.8994 57.555 74.8409 57.1939 73.8022C57.4061 74.8897 57.6476 75.965 57.8327 77.0521C58.0337 78.1339 58.2029 79.2192 58.3247 80.3071C58.4433 81.3961 58.5217 82.4865 58.5633 83.5856L58.6952 86.8964L58.7419 88.0697L59.3018 87.1006C59.7928 86.252 60.3007 85.4189 60.8086 84.5866C61.3183 83.7561 61.8479 82.9438 62.3913 82.1437C62.94 81.3487 63.5058 80.5681 64.1059 79.8209C64.6973 79.0625 65.339 78.3583 66.0016 77.6708Z" fill="#4D51AC"/>
<path d="M63.839 71.7046C63.4295 71.8393 63.0539 72.0884 62.7051 72.3704C62.3567 72.6571 62.0415 72.9952 61.7516 73.3612C61.461 73.7269 61.2087 74.1306 60.9737 74.548C60.8562 74.7565 60.7554 74.9755 60.6451 75.1906L60.3552 75.8589L60.9791 76.142L61.1772 75.4762C61.2567 75.2615 61.3276 75.0392 61.4147 74.8275C61.5889 74.4039 61.7819 73.9865 62.0158 73.5991C62.2489 73.2124 62.511 72.8439 62.8128 72.5181C63.1161 72.1962 63.4508 71.8987 63.839 71.7046Z" fill="#4D51AC"/>
<path d="M66.589 123.481C66.016 122.471 65.456 121.463 64.9311 120.436C64.4015 119.413 63.9251 118.362 63.4598 117.312C62.5625 115.189 61.7828 113.02 61.1632 110.79C60.5381 108.563 60.0248 106.3 59.5809 104.011C59.1366 101.756 58.8821 99.4474 58.8463 97.1174C58.761 92.4523 59.378 87.7872 60.16 83.162C60.5349 80.8385 60.9032 78.4792 60.9549 76.0738C60.9806 74.8737 60.9199 73.6624 60.7203 72.4742C60.5186 71.2878 60.1734 70.1283 59.6738 69.0628C59.6521 69.0161 59.6011 68.9977 59.561 69.0216C59.5219 69.0444 59.5064 69.0987 59.5248 69.1443C60.3982 71.311 60.592 73.712 60.43 76.0315C60.2728 78.3644 59.7985 80.6495 59.326 82.9429C58.3709 87.5392 57.5709 92.247 57.4707 97.0816C57.4227 99.4927 57.5329 101.941 57.919 104.355C58.304 106.734 58.8727 109.089 59.6336 111.369C61.1357 115.93 63.4396 120.203 66.461 123.6C66.4943 123.637 66.5474 123.637 66.5796 123.6C66.6074 123.568 66.6103 123.518 66.589 123.481Z" fill="#4D51AC"/>
<path d="M62.9866 130.547C62.9866 130.547 43.6775 139.189 32.6896 138.779C31.1665 138.722 29.6052 138.595 28.1758 138.026C26.3119 137.284 24.6851 135.395 25.3105 133.747C25.9265 132.123 28.2232 131.701 29.5137 130.469C27.0121 130.878 24.4389 131.212 21.8647 130.837C19.2907 130.463 16.6805 129.276 15.2239 127.265C14.9683 126.911 14.7462 126.523 14.7116 126.115C14.6183 125.015 15.8895 124.298 17.0848 124.145C18.2801 123.991 19.5722 124.155 20.6667 123.739C17.5001 123.644 14.3797 122.312 11.8542 120.424C9.32854 118.536 7.34619 116.12 5.6508 113.605C4.13107 111.35 2.6284 108.826 0 107.682C4.95461 107.64 9.57653 105.786 14.5325 105.758C19.7734 105.729 25.1627 107.874 28.8731 111.465C28.1013 109.935 27.3628 108.034 28.4628 106.807C29.5192 105.63 31.6434 105.844 33.3088 106.431C37.9364 108.063 41.4629 111.65 44.4302 115.296C43.9385 113.75 43.5828 111.797 44.9717 110.925C46.2366 110.131 48.0897 110.832 49.4323 111.705C52.9881 114.015 62.9866 130.547 62.9866 130.547Z" fill="#F9AB41"/>
<path d="M47.0966 115.165C47.7354 116.63 48.4494 118.072 49.1973 119.502C49.946 120.933 50.7655 122.339 51.6429 123.721C52.529 125.097 53.4689 126.455 54.5212 127.75C55.5703 129.045 56.7051 130.299 57.9938 131.434L58.1117 130.849C55.9401 131.461 53.7443 132.036 51.5496 132.603C49.3484 133.155 47.1487 133.711 44.9283 134.211C42.7112 134.719 40.4861 135.208 38.2415 135.636C35.9984 136.069 33.7375 136.445 31.4456 136.724L33.1855 136.62C33.7654 136.582 34.338 136.51 34.9153 136.457C35.4934 136.405 36.0664 136.334 36.639 136.259C37.2113 136.185 37.7882 136.123 38.3551 136.028C40.6383 135.698 42.8923 135.268 45.1387 134.817C47.38 134.352 49.6069 133.845 51.8168 133.292C54.0296 132.746 56.2235 132.162 58.4052 131.527L58.9938 131.356L58.5234 130.943C57.2799 129.849 56.1397 128.651 55.0855 127.393C54.035 126.133 53.0492 124.825 52.1302 123.482C51.203 122.141 50.3397 120.767 49.4985 119.381C48.6572 117.994 47.8753 116.581 47.0966 115.165Z" fill="#F5802D"/>
<path d="M39.0206 112.975C39.5115 114.539 40.0965 116.083 40.7103 117.621C41.3415 119.155 42.0341 120.674 42.8063 122.167C43.577 123.661 44.4291 125.129 45.3838 126.552C46.3512 127.967 47.4072 129.35 48.6439 130.615L48.8221 130.034C47.3121 130.346 45.7833 130.623 44.2621 130.914L39.6814 131.74C38.1512 132.007 36.6199 132.268 35.0842 132.519C33.5525 132.786 32.0078 133 30.4678 133.248C32.041 133.156 33.6049 133.011 35.1673 132.856C36.7272 132.69 38.2835 132.505 39.8307 132.285C41.3805 132.074 42.9223 131.834 44.4602 131.578C46.0002 131.329 47.5258 131.039 49.056 130.743L49.676 130.622L49.2342 130.161C48.0554 128.932 46.9969 127.603 46.0425 126.217C45.0773 124.835 44.2107 123.4 43.3916 121.943C42.576 120.486 41.8147 119.003 41.0939 117.506C40.3564 116.012 39.6927 114.494 39.0206 112.975Z" fill="#F5802D"/>
<path d="M31.1231 109.409C31.5436 111.114 32.0768 112.802 32.6469 114.484C33.2372 116.162 33.8937 117.825 34.6258 119.468C35.3542 121.113 36.1521 122.731 37.0233 124.335C37.9166 125.927 38.9465 127.511 40.3423 128.866L40.7956 128.31C39.0763 127.518 37.2051 127.284 35.4294 127.203C33.6472 127.129 31.8812 127.106 30.1142 127.141C28.3482 127.167 26.5881 127.258 24.8405 127.386C23.0943 127.523 21.3514 127.644 19.5891 127.672C21.3606 127.803 23.1282 127.753 24.8886 127.732C26.647 127.69 28.4028 127.677 30.1623 127.699C31.9199 127.729 33.6855 127.777 35.4384 127.883C37.1776 127.997 38.9306 128.224 40.4644 128.95L42.4448 129.888L40.9178 128.394C39.6145 127.119 38.5984 125.615 37.7148 124.056C36.8216 122.495 36.0071 120.888 35.2223 119.279C34.4439 117.666 33.7137 116.035 33.0344 114.388C32.3364 112.746 31.7269 111.08 31.1231 109.409Z" fill="#F5802D"/>
<path d="M26.3046 112.741C26.6256 113.82 27.0171 114.885 27.413 115.95C27.8222 117.011 28.2611 118.066 28.7412 119.108C29.2144 120.152 29.7259 121.185 30.2653 122.208C30.7978 123.233 31.3783 124.241 31.973 125.242L32.4672 124.761C31.7778 124.483 31.0993 124.291 30.4146 124.099C29.7313 123.912 29.0477 123.739 28.3637 123.573C26.994 123.249 25.6203 122.957 24.2443 122.685C22.868 122.413 21.4888 122.163 20.1069 121.935C18.7229 121.722 17.3404 121.498 15.951 121.338L24.1357 123.262C25.4974 123.584 26.8577 123.908 28.2105 124.253C29.5571 124.593 30.9275 124.954 32.1798 125.415L33.1982 125.791L32.674 124.935C32.071 123.95 31.5013 122.95 30.9322 121.95C30.3697 120.948 29.8278 119.936 29.2964 118.921C28.7722 117.902 28.256 116.879 27.76 115.849C27.251 114.822 26.7872 113.78 26.3046 112.741Z" fill="#F5802D"/>
<path d="M18.6486 108.383C18.7906 109.378 19.0593 110.365 19.3625 111.346C19.6813 112.323 20.0626 113.289 20.498 114.237C20.9254 115.187 21.4111 116.118 21.9159 117.039C22.4186 117.962 22.9675 118.864 23.5136 119.765L24.0263 119.285C22.9439 118.783 21.8573 118.283 20.7578 117.794C19.6524 117.318 18.5286 116.86 17.3763 116.485C16.2261 116.103 15.056 115.794 13.8814 115.534C12.7026 115.291 11.5259 115.061 10.34 114.893C11.4949 115.228 12.654 115.528 13.7946 115.888C14.9391 116.231 16.07 116.605 17.1785 117.026C18.286 117.451 19.3751 117.915 20.4523 118.418L23.7014 119.928L24.8529 120.463L24.2144 119.449C23.6546 118.56 23.119 117.662 22.5848 116.766C22.0527 115.868 21.5485 114.96 21.0628 114.045C20.5854 113.127 20.1304 112.201 19.7255 111.258C19.3053 110.318 18.9634 109.356 18.6486 108.383Z" fill="#F5802D"/>
<path d="M11.7894 107.502C11.7055 107.96 11.7489 108.442 11.838 108.915C11.9315 109.39 12.0922 109.859 12.2924 110.317C12.4924 110.776 12.7485 111.217 13.0268 111.647C13.1659 111.863 13.3239 112.067 13.473 112.279L13.9636 112.887L14.561 112.43L14.0246 111.911C13.8598 111.729 13.6835 111.551 13.5254 111.363C13.2091 110.988 12.9089 110.597 12.659 110.182C12.4088 109.768 12.1916 109.335 12.0359 108.885C11.8849 108.436 11.7734 107.969 11.7894 107.502Z" fill="#F5802D"/>
<path d="M62.9631 130.457C61.6935 130.506 60.4333 130.543 59.1734 130.538C57.9147 130.539 56.6563 130.475 55.4044 130.401C52.8981 130.21 50.4073 129.884 47.9418 129.375C45.4767 128.872 43.0348 128.245 40.6054 127.538C38.2068 126.849 35.8563 125.951 33.5995 124.834C29.0731 122.61 24.9136 119.715 20.8782 116.682C18.8415 115.175 16.7667 113.657 14.4831 112.419C13.3435 111.802 12.1483 111.261 10.9028 110.865C9.65787 110.471 8.36407 110.229 7.07972 110.18C7.02354 110.178 6.97947 110.217 6.98117 110.268C6.98312 110.316 7.02719 110.358 7.08059 110.363C9.6172 110.598 12.0251 111.599 14.1688 112.9C16.328 114.203 18.2758 115.786 20.2327 117.371C24.15 120.556 28.2553 123.647 32.8475 126.131C35.1388 127.369 37.5485 128.473 40.0682 129.297C42.555 130.104 45.1138 130.724 47.7003 131.123C52.8662 131.941 58.1713 131.849 63.0101 130.638C63.0636 130.625 63.0914 130.574 63.0723 130.525C63.056 130.483 63.0097 130.455 62.9631 130.457Z" fill="#F5802D"/>
<path d="M70.2648 35.1441C70.2648 35.1441 70.7839 37.4658 68.1171 40.3233C68.1171 40.3233 73.6532 38.7159 75.2579 35.1441H70.2648Z" fill="#F5802D"/>
<path d="M78.352 36.5822H66.007C64.8155 36.5822 63.8499 35.6152 63.8499 34.4223V26.7998C63.8499 25.6066 64.8155 24.6396 66.007 24.6396H78.352C79.5432 24.6396 80.5088 25.6066 80.5088 26.7998V34.4223C80.5088 35.6152 79.5432 36.5822 78.352 36.5822Z" fill="#F5802D"/>
<path d="M69.1416 30.6109C69.1416 31.2339 68.6374 31.739 68.0153 31.739C67.3936 31.739 66.8894 31.2339 66.8894 30.6109C66.8894 29.9882 67.3936 29.4832 68.0153 29.4832C68.6374 29.4832 69.1416 29.9882 69.1416 30.6109Z" fill="#FFFEF2"/>
<path d="M73.3055 30.6109C73.3055 31.2339 72.8013 31.739 72.1792 31.739C71.5575 31.739 71.0532 31.2339 71.0532 30.6109C71.0532 29.9882 71.5575 29.4832 72.1792 29.4832C72.8013 29.4832 73.3055 29.9882 73.3055 30.6109Z" fill="#FFFEF2"/>
<path d="M77.4689 30.6109C77.4689 31.2339 76.965 31.739 76.343 31.739C75.7209 31.739 75.2166 31.2339 75.2166 30.6109C75.2166 29.9882 75.7209 29.4832 76.343 29.4832C76.965 29.4832 77.4689 29.9882 77.4689 30.6109Z" fill="#FFFEF2"/>
<path d="M48.8778 26.4965C48.8778 29.3521 51.1896 31.6673 54.0411 31.6673C56.8927 31.6673 59.2042 29.3521 59.2042 26.4965C59.2042 23.6408 56.8927 21.326 54.0411 21.326C51.1896 21.326 48.8778 23.6408 48.8778 26.4965Z" fill="#F1487C"/>
<path d="M51.4973 25.9643C51.4973 25.8553 51.5092 25.7496 51.5312 25.6475C51.6762 24.9745 52.2738 24.4698 52.9895 24.4698C53.3999 24.4698 53.7711 24.7953 54.0412 25.0635C54.3108 24.7953 54.6825 24.4698 55.0928 24.4698C55.8082 24.4698 56.4061 24.9745 56.5511 25.6475C56.5731 25.7496 56.5851 25.8553 56.5851 25.9643L56.5833 26.037L56.5851 26.1199C56.5851 27.727 54.0412 29.0295 54.0412 29.0295C54.0412 29.0295 51.4973 27.727 51.4973 26.1199L51.4991 26.037L51.4973 25.9643Z" fill="white"/>
<path d="M55.0537 30.8892L58.801 33.2337L57.2955 28.5451L55.0537 30.8892Z" fill="#F1487C"/>
<path d="M46.2008 43.9041C46.2008 47.8079 49.3604 50.9724 53.2585 50.9724C57.1566 50.9724 60.3165 47.8079 60.3165 43.9041C60.3165 40.0004 57.1566 36.8359 53.2585 36.8359C49.3604 36.8359 46.2008 40.0004 46.2008 43.9041Z" fill="#4D51AC"/>
<path d="M54.6426 49.909L59.7663 53.1137L57.7082 46.7044L54.6426 49.909Z" fill="#4D51AC"/>
<path d="M56.2958 42.9592C56.2958 42.5382 55.9531 42.1957 55.532 42.1957H54.2873C54.2848 41.8257 54.2573 41.2983 54.2302 40.8917C54.2125 40.6296 54.082 40.4862 53.975 40.4116C53.6742 40.2017 53.2476 40.3125 53.1645 40.3371C53.0401 40.374 52.9598 40.4938 52.9729 40.6227C53.056 41.4373 52.5224 42.376 51.9813 42.7779C51.965 42.7891 51.9267 42.8061 51.8808 42.8253V42.691C51.8808 42.5425 51.7604 42.422 51.6122 42.422H50.2026C50.0544 42.422 49.9341 42.5425 49.9341 42.691V46.3721C49.9341 46.5205 50.0544 46.6411 50.2026 46.6411H51.6122H51.6154C51.7535 46.6392 51.8591 46.5143 51.8612 46.376L51.8645 46.228H55.2279C55.5363 46.228 55.8201 46.01 55.8559 45.703C55.8913 45.4018 55.6267 45.3197 55.6039 45.2443C55.7959 45.1042 56.1682 45.0358 56.1682 44.7871C56.1682 44.5167 55.9206 44.4801 55.8996 44.4095C56.0912 44.2694 56.2958 44.0435 56.2958 43.7941C56.2958 43.6431 56.1411 43.4987 56.0608 43.3767C56.1411 43.2547 56.2958 43.1106 56.2958 42.9592Z" fill="white"/>
<path d="M26.5584 65.3974L44.0477 60.0422L75.0815 121.498L57.5918 126.853L26.5584 65.3974Z" fill="#9FBFE8"/>
<path d="M47.5051 66.8886L39.3727 90.7737L45.2742 102.46L53.0285 77.8265L47.5051 66.8886Z" fill="#C1DCF4"/>
<path d="M59.5809 90.8019L52.4068 116.585L57.5916 126.853L60.6025 125.931L65.9799 103.474L59.5809 90.8019Z" fill="#C1DCF4"/>
<path d="M57.5915 126.853L31.5035 75.1906L26.5585 65.3974L44.0477 60.0423L45.5548 63.0265L48.9935 69.8355L75.0815 121.498L57.5915 126.853ZM70.3566 132.138C69.5338 132.39 68.1695 131.22 67.3178 129.533C66.4643 127.843 66.4404 126.264 67.2632 126.012C68.0871 125.76 69.4514 126.929 70.3049 128.619C71.1566 130.306 71.1805 131.885 70.3566 132.138ZM31.1727 59.6603L35.6499 58.2897C35.7309 58.2651 35.8618 58.3788 35.9442 58.5417C36.0263 58.7046 36.0302 58.8574 35.9493 58.8823L31.4717 60.253C31.3925 60.2776 31.2598 60.1639 31.1778 60.001C31.0953 59.8384 31.0932 59.6849 31.1727 59.6603ZM78.5556 126.262L43.5904 57.0204C42.2142 54.2951 40.0234 52.4173 38.6942 52.8242L24.1644 57.2728C22.8353 57.6797 22.8725 60.2171 24.2486 62.9421L59.214 132.184C60.5898 134.909 62.7824 136.787 64.1113 136.38L78.6413 131.931C79.9701 131.524 79.9318 128.987 78.5556 126.262Z" fill="#293F9C"/>
<path d="M70.0573 131.545C70.7213 131.342 70.7033 130.068 70.0157 128.707C69.327 127.343 68.2262 126.401 67.5625 126.605C66.8984 126.808 66.9179 128.081 67.6066 129.445C68.2938 130.806 69.3935 131.749 70.0573 131.545ZM67.2632 126.012C68.087 125.76 69.4514 126.929 70.3049 128.619C71.1566 130.306 71.1805 131.885 70.3566 132.138C69.5338 132.39 68.1695 131.22 67.3178 129.533C66.4643 127.843 66.4404 126.264 67.2632 126.012Z" fill="#E6E6E4"/>
<path d="M67.5625 126.605C68.2262 126.401 69.3268 127.343 70.0154 128.707C70.7029 130.068 70.721 131.342 70.057 131.545C69.3933 131.749 68.2937 130.806 67.6066 129.445C66.918 128.081 66.8985 126.808 67.5625 126.605Z" fill="#293F9C"/>
<path d="M64.1113 136.38C63.7349 136.495 63.2896 136.427 62.8127 136.208C62.6287 136.124 62.4404 136.017 62.2495 135.891C62.0883 135.783 61.9252 135.661 61.7618 135.525C61.6075 135.397 61.4528 135.257 61.2991 135.106C61.1437 134.953 60.9893 134.79 60.8367 134.615C60.6705 134.426 60.5067 134.225 60.3465 134.012C60.1398 133.738 59.9395 133.445 59.7483 133.136C59.5599 132.833 59.381 132.515 59.2139 132.184L24.2486 62.9421C23.9407 62.3324 23.6998 61.7322 23.5263 61.1627C23.4287 60.8427 23.3524 60.5321 23.2974 60.2356C23.2552 60.0071 23.2255 59.787 23.2086 59.5767C23.1932 59.3852 23.1882 59.202 23.1938 59.0279C23.1994 58.857 23.2152 58.6948 23.2412 58.5435C23.2686 58.3849 23.3072 58.2372 23.3574 58.1032C23.4161 57.9454 23.4904 57.8056 23.5805 57.6869C23.6809 57.554 23.8009 57.4469 23.9405 57.3683L20.8198 59.1227C20.6803 59.2009 20.5605 59.3081 20.46 59.4409C20.37 59.56 20.2955 59.6994 20.2368 59.8573C20.1867 59.9916 20.148 60.1389 20.1208 60.2979C20.0948 60.4492 20.0788 60.611 20.0735 60.7822C20.0678 60.956 20.0725 61.1392 20.088 61.3311C20.1051 61.5414 20.1346 61.7615 20.1768 61.99C20.2318 62.2865 20.3082 62.5967 20.4057 62.9171C20.5793 63.4862 20.8201 64.0868 21.1282 64.6965L56.0934 133.938C56.2604 134.269 56.4394 134.587 56.6277 134.891C56.819 135.199 57.0192 135.492 57.226 135.766C57.3862 135.978 57.5503 136.181 57.7162 136.37C57.8688 136.544 58.0231 136.708 58.1786 136.86C58.3326 137.011 58.487 137.151 58.6413 137.279C58.8047 137.415 58.9678 137.537 59.129 137.645C59.3199 137.772 59.5086 137.878 59.6922 137.963C60.169 138.181 60.6144 138.249 60.9907 138.134L75.5207 133.685L78.6412 131.931L64.1113 136.38Z" fill="#2B357D"/>
<path d="M88.5425 57.4262L80.8341 60.3181L78.5827 54.2994L86.291 51.4075L88.5425 57.4262Z" fill="#4D51AC"/>
<path d="M95.2578 59.0049L87.0517 57.9289L84.819 51.9595L90.3204 45.8057L95.2578 59.0049Z" fill="#4D51AC"/>
<path d="M84.4227 57.7262L79.5117 59.5686L78.0772 55.7344L82.9883 53.892L84.4227 57.7262Z" fill="#4D51AC"/>
<path d="M87.6438 64.5024L85.4032 65.343L83.1926 59.4333L85.4332 58.5927L87.6438 64.5024Z" fill="#4D51AC"/>
<path d="M95.2579 59.5056C95.0554 59.5056 94.8649 59.3814 94.7901 59.1809L89.8526 45.9814C89.7557 45.7225 89.887 45.434 90.1451 45.337C90.4036 45.2403 90.6917 45.3714 90.7882 45.6302L95.726 58.8297C95.8225 59.0882 95.6913 59.3767 95.4332 59.4738C95.3754 59.4955 95.3161 59.5056 95.2579 59.5056Z" fill="#3C49A6"/>
<path d="M87.0513 58.4297C86.8489 58.4297 86.6588 58.3055 86.5836 58.105L84.3508 52.1351C84.254 51.8763 84.3852 51.5881 84.6433 51.4911C84.9024 51.3944 85.1902 51.5255 85.2867 51.7843L87.5194 57.7534C87.6159 58.0123 87.4851 58.3008 87.2266 58.3978C87.1692 58.4196 87.1095 58.4297 87.0513 58.4297Z" fill="#3C49A6"/>
<path d="M87.7649 82.3166L75.3627 82.9067L77.3062 78.3597C77.3062 78.3597 79.3852 77.7348 88.3889 80.1792L87.7649 82.3166Z" fill="#F9A776"/>
<path d="M69.3047 75.173L75.4134 82.9565L77.3062 78.3595L73.7497 73.1051C72.1793 73.5768 70.6784 74.2458 69.3047 75.173Z" fill="#F9A776"/>
<path d="M76.4187 75.0001L71.4248 67.2882C70.4184 64.9249 67.1305 64.5722 65.6556 66.6698C64.9366 67.6929 64.8812 69.3409 65.5301 70.4179L69.9633 80.0344C71.2289 78.2456 74.746 75.7053 76.4187 75.0001Z" fill="#F36629"/>
<path d="M46.3415 124.422L64.4587 86.9614L56.6386 83.6199C47.2109 97.6459 41.4915 123.361 41.4915 123.361L46.3415 124.422Z" fill="#EF2D5B"/>
<path d="M71.5395 63.153C70.169 62.2538 68.9818 61.1398 68.1189 59.6226C67.5535 60.7387 66.781 62.4246 66.0518 64.5552C66.4957 64.4578 66.983 64.6077 67.406 64.7608C69.1589 65.3531 70.1813 67.3681 71.9599 67.7656C71.8677 67.6686 70.7286 65.0399 70.7286 65.0399L71.5395 63.153Z" fill="#F9A776"/>
<path d="M71.5395 63.1527L72.7198 60.4067L68.9525 58.0995C68.9525 58.0995 68.6152 58.6419 68.1189 59.6222C68.9818 61.1398 70.169 62.2538 71.5395 63.1527Z" fill="#F6894C"/>
<path d="M67.7437 50.855C69.4341 49.6745 72.4931 49.5282 74.0219 51.0791C74.5165 51.5809 74.5859 52.7231 74.75 53.4957C74.7796 53.634 74.9759 54.6288 74.9759 54.6288L76.5785 56.7999L75.7167 57.7191L76.0717 60.7C76.0717 60.7 71.3222 61.1645 69.6311 59.9919C67.9447 58.8229 65.892 56.0892 66.5626 52.5642C66.7062 51.8101 67.1682 51.2573 67.7437 50.855Z" fill="#F9A776"/>
<path d="M43.2141 122.56L63.6955 86.3408L56.6259 82.3661C46.5533 92.2799 38.4422 121.189 38.4422 121.189L43.2141 122.56Z" fill="#F03960"/>
<path d="M71.9599 67.7657C70.605 66.6419 69.2092 64.1132 67.9617 62.8338C67.6649 62.5163 67.26 62.5655 66.836 62.4537C61.9578 65.3314 61.8128 67.3374 59.287 78.2156C59.1543 78.7865 58.688 80.6984 56.626 82.3662L63.6457 88.6217L65.4778 85.2422C65.4781 85.2418 74.0643 74.8614 71.9599 67.7657Z" fill="#F5802D"/>
<path d="M64.5097 87.0281L65.4777 85.2422C65.4777 85.2422 65.478 85.2418 65.4784 85.2415C65.478 85.2418 65.4777 85.2422 65.4777 85.2422L64.5097 87.0281Z" fill="#4042A1"/>
<path d="M63.6456 88.6217L61.9928 87.149C66.1183 83.4842 68.6561 78.6761 70.3667 73.5527L71.5774 74.389C69.8519 79.9088 65.5894 85.1064 65.4799 85.2393C65.4795 85.24 65.4792 85.2404 65.4788 85.2411C65.4784 85.2411 65.4784 85.2411 65.4784 85.2415C65.4781 85.2418 65.4777 85.2422 65.4777 85.2422L64.5096 87.0281L63.6456 88.6217Z" fill="#F5762B"/>
<path d="M84.066 64.3977L81.3124 76.522L78.7237 71.3653C78.7237 71.3653 77.4136 71.2559 82.1764 63.2233L84.066 64.3977Z" fill="#F9A776"/>
<path d="M83.4261 64.6388L86.7874 63.3721C87.4352 63.1284 87.7797 62.4203 87.5733 61.7589L86.9544 59.7764L85.6928 59.2142C85.6928 59.2142 84.8891 60.4802 84.16 60.398C84.16 60.398 83.4757 60.5754 83.4869 59.8151C83.4974 59.0549 83.0975 58.4999 82.548 59.2649C81.9986 60.0298 81.944 61.8744 82.1764 63.2233L83.4261 64.6388Z" fill="#F9A776"/>
<path d="M72.0517 73.0577L81.3124 76.522L78.5743 70.7657L74.7738 68.9755C73.6777 70.197 72.7433 71.5499 72.0517 73.0577Z" fill="#F9A776"/>
<path d="M75.8894 68.6055L68.4023 64.8687C66.508 63.4767 63.8278 64.7452 63.6991 67.0948C63.6366 68.2403 64.3787 69.5671 65.3873 70.1116L73.3524 75.6155C73.4684 73.6088 74.947 69.9494 75.8894 68.6055Z" fill="#F9AB41"/>
<path d="M66.1479 51.8878C66.1479 51.8878 65.2474 49.8224 68.7786 49.3829C73.4221 48.8051 77.8383 46.3929 74.5298 53.2226C74.5298 53.2226 74.5164 52.6057 74.3136 51.7397C74.3136 51.7397 73.0295 53.9376 70.8374 53.7844C70.8374 53.7844 72.4038 52.3421 72.2856 51.5247C72.2856 51.5247 70.9263 53.4481 69.0132 53.6476L69.2995 56.6158L69.0295 57.9289L67.5752 60.7458C67.5752 60.7458 64.4904 60.3842 65.8269 59.9722C67.1273 59.5714 66.2611 58.3297 66.0518 57.8022C65.8031 57.1748 65.0815 56.2661 64.9138 55.4262C64.1633 51.6611 66.1479 51.8878 66.1479 51.8878Z" fill="#2B357D"/>
<path d="M69.5297 56.4665C69.5297 56.4665 69.1498 54.3247 68.3083 54.5778C67.4668 54.8312 67.3045 55.9292 67.637 57.302C67.97 58.6748 69.1042 58.2245 69.1042 58.2245L70.0813 57.9627L69.5297 56.4665Z" fill="#F9A776"/>
<path d="M68.0871 71.9771C66.9285 71.1886 65.8227 70.4641 65.1459 69.9631C65.2244 70.0174 65.305 70.067 65.3874 70.1115L68.0871 71.9771ZM64.9601 69.8226C63.816 68.9324 63.6424 67.8438 63.6999 67.0828C63.6999 67.0868 63.6995 67.0908 63.6992 67.0947C63.646 68.0711 64.1775 69.1797 64.9601 69.8226Z" fill="#F5792B"/>
<path d="M73.976 72.8137C73.9771 72.8106 73.9777 72.8082 73.9788 72.8051C73.9791 72.8051 73.9791 72.8051 73.9791 72.8051C73.9781 72.8082 73.9771 72.811 73.976 72.8137Z" fill="#F89C65"/>
<path d="M73.3525 75.6155C73.3525 75.6155 70.7728 73.8158 68.3702 72.1704C68.2755 72.1056 68.1811 72.0412 68.0871 71.9771L65.3874 70.1116C65.305 70.067 65.2244 70.0174 65.1459 69.9631C65.0859 69.9186 65.0295 69.8763 64.9767 69.8353C64.9713 69.8314 64.9655 69.827 64.9601 69.8227C64.1775 69.1797 63.646 68.0712 63.6992 67.0948C63.6995 67.0908 63.6999 67.0868 63.6999 67.0829C63.7422 66.5261 63.9078 66.1448 63.9078 66.1448C64.1782 69.4751 73.9146 72.783 73.979 72.8047C73.9779 72.808 73.9771 72.8105 73.9761 72.8137C73.3832 74.4284 73.3525 75.6155 73.3525 75.6155Z" fill="#F89F3C"/>
<path d="M128.09 89.1326C127.31 89.6789 126.806 90.0203 125.811 90.3443C122.503 91.4217 119.497 89.0931 116.167 88.0925C115.705 88.0925 115.084 88.0925 114.524 88.0925C108.718 93.087 103.841 101.596 103.841 101.596L123.077 112.645L124.461 111.627C118.1 99.5734 112.216 100.169 112.216 100.169C115.166 99.7143 121.926 94.0953 121.926 94.0953C128.126 109.309 132.358 130.109 132.358 130.109L133.622 130.276C134.349 105.44 131.183 94.3595 128.09 89.1326Z" fill="#4D51AC"/>
<path d="M124.043 111.954L124.03 111.943L124.461 111.627L124.043 111.954ZM124.461 111.627C121.268 105.576 118.195 102.713 115.926 101.362C121.086 104.311 124.461 111.627 124.461 111.627ZM112.216 100.169C112.229 100.167 112.243 100.165 112.256 100.163C112.229 100.167 112.216 100.169 112.216 100.169ZM114.944 99.047C118.096 97.2785 121.926 94.0952 121.926 94.0952C118.809 96.7025 116.516 98.1951 114.944 99.047Z" fill="#BDB6E1"/>
<path d="M124.03 111.943L109.13 99.7852L121.926 94.0952C121.926 94.0952 118.096 97.2785 114.944 99.047C113.301 99.9379 112.444 100.129 112.256 100.163C112.243 100.165 112.229 100.167 112.216 100.169C113.531 100.262 114.773 100.703 115.927 101.362C118.195 102.713 121.268 105.576 124.461 111.627L124.03 111.943Z" fill="#434CA8"/>
<path d="M133.702 128.514C133.691 128.514 133.678 128.514 133.667 128.514C133.96 115.47 133.148 106.373 131.853 99.9843C133.185 106.411 134.215 115.863 133.702 128.514Z" fill="#BDB6E1"/>
<path d="M133.621 130.276C133.639 129.68 133.654 129.094 133.667 128.514C133.678 128.514 133.691 128.514 133.702 128.514C133.679 129.095 133.652 129.682 133.621 130.276Z" fill="#A8AADC"/>
<path d="M130.903 96.0335C130.04 92.9928 129.061 90.774 128.09 89.1325C128.091 89.1329 128.091 89.1329 128.091 89.1329C128.112 89.1619 129.537 91.1284 130.903 96.0335Z" fill="#A8AADC"/>
<path d="M133.621 130.276L131.306 109.657C130.692 104.186 129.381 98.8168 127.404 93.68L126.112 90.3244C126.691 90.0858 127.46 89.6173 128.091 89.1329C129.061 90.774 130.04 92.9929 130.903 96.0336C130.904 96.0393 130.906 96.0451 130.908 96.0513C131.229 97.2058 131.549 98.516 131.853 99.9843C133.148 106.373 133.96 115.47 133.667 128.514C133.654 129.094 133.639 129.68 133.621 130.276Z" fill="#434CA8"/>
<path d="M123.077 112.645C123.077 112.645 117.733 119.608 118.149 120.536C118.565 121.463 126.405 114.991 126.405 114.991C126.405 114.991 127.616 113.414 124.461 111.626L123.077 112.645Z" fill="#F03767"/>
<path d="M132.358 130.109C132.358 130.109 131.91 131.661 131.168 132.894C130.426 134.128 129.026 135.265 131.691 136.848C131.691 136.848 134.544 136.863 134.887 135.155C135.229 133.446 133.622 130.276 133.622 130.276L132.358 130.109Z" fill="#F03767"/>
<path d="M109.936 60.3598C109.535 60.7674 109.207 61.3441 109.265 61.9386C109.349 62.8034 110.163 63.2781 110.574 64.0021C110.683 64.1925 110.766 64.4148 110.748 64.6447C110.718 65.0277 110.415 65.3307 110.094 65.4647C109.772 65.599 109.426 65.6077 109.089 65.6685C107.735 65.9129 106.523 67.0964 106.107 68.5799C105.937 69.1838 105.896 69.8535 106.114 70.4227C106.436 71.2611 107.247 71.7136 108.043 71.9012C108.839 72.0887 109.672 72.0786 110.455 72.3204C111.238 72.5619 112.007 73.1415 112.189 74.0364C112.302 74.5932 112.173 75.1851 112.224 75.7557C112.333 76.9858 113.265 77.9141 114.277 78.359C115.1 78.7214 116.029 78.8412 116.9 78.5828C117.771 78.3243 118.574 77.6618 118.976 76.7447C119.386 75.8103 119.379 74.6642 119.956 73.8467C120.447 73.1513 121.259 72.8544 122.031 72.7519C122.803 72.6495 123.587 72.7013 124.35 72.5217C125.738 72.1951 127.06 70.8752 127.083 69.2826C127.106 67.7701 126.024 66.5834 124.929 65.7532C124.044 65.082 123.002 64.3554 122.869 63.147C122.733 61.9143 123.638 60.729 123.521 59.4931C123.422 58.4482 122.631 57.7043 121.871 57.1189C120.638 56.1689 119.331 55.3392 117.967 54.6415C117.2 54.2491 116.125 53.8176 115.307 54.4091C114.766 54.8001 114.658 55.56 114.427 56.178C113.532 58.567 111.477 58.7947 109.936 60.3598Z" fill="#2B357D"/>
<path d="M113.013 69.6598L105.091 81.1259L106.16 84.0475C106.16 84.0475 112.958 76.2769 113.695 74.6927C114.433 73.1085 114.871 72.2736 114.317 70.5196C113.763 68.7652 113.013 69.6598 113.013 69.6598Z" fill="#F1487C"/>
<path d="M95.3923 81.0256L106.16 84.0475L105.091 81.1259C105.091 81.1259 104.366 79.9841 95.2448 79.8574L95.3923 81.0256Z" fill="#F1487C"/>
<path d="M96.5245 80.4221C96.4663 80.3631 96.2437 80.4301 95.9353 80.5648L96.0962 80.7541C95.7119 82.0752 94.8728 83.7242 94.0819 84.185C93.2909 84.6455 93.1926 83.9733 93.5288 83.2883C93.8646 82.6034 93.2128 82.4745 93.2128 82.4745C92.8358 82.2247 91.4262 82.9085 90.5872 83.5008C90.3627 83.659 90.071 83.4277 90.1725 83.1725L90.8214 81.5426L91.6377 80.7574L91.6511 80.7364C90.4408 80.812 89.25 81.2418 88.2895 80.332L87.3615 81.7642L89.3436 84.4808L93.5718 84.7223L96.6261 82.3043C96.6261 82.3043 97.2201 81.1288 96.5245 80.4221Z" fill="#F9A776"/>
<path d="M91.6381 81.3363C91.6602 81.4724 91.9736 82.7 92.2107 82.6164C92.4356 82.5368 94.8005 81.0608 95.9353 80.5648L95.3341 79.8574L92.4117 80.0134L91.6377 80.7574C91.4519 81.009 91.6381 81.3363 91.6381 81.3363Z" fill="#F68951"/>
<path d="M92.2104 82.6164C91.9733 82.7001 91.6599 81.4724 91.6379 81.3363C91.6379 81.3363 91.4517 81.009 91.6375 80.7574L90.8213 81.5427L90.1725 83.1725C90.0709 83.4278 90.3626 83.6591 90.5871 83.5009C90.8268 83.3318 91.378 83.6497 91.6444 83.4451C92.1063 83.0885 92.0409 82.6765 92.3294 82.5719V82.5578C92.2751 82.5864 92.2314 82.6088 92.2104 82.6164Z" fill="#F68951"/>
<path d="M95.9348 80.5648C94.9043 81.0152 92.8642 82.2707 92.3296 82.5578V82.5719C92.7243 82.4289 93.0569 82.3713 93.2127 82.4745C93.2127 82.4745 93.8644 82.6034 93.5286 83.2883C93.1924 83.9733 93.2907 84.6456 94.0816 84.1851C94.8725 83.7242 95.7115 82.0752 96.0957 80.7541L95.9348 80.5648Z" fill="#F9A776"/>
<path d="M106.16 84.0475C106.16 84.0475 106.16 84.0475 106.16 84.0471V84.0475ZM106.656 83.4773C106.668 83.4646 106.679 83.4516 106.69 83.4382L106.684 83.4462L106.656 83.4773Z" fill="#F8A2CD"/>
<path d="M112.173 70.8766L112.952 69.7428C112.951 69.7435 112.951 69.7442 112.95 69.745C112.938 69.7645 112.924 69.7862 112.909 69.8101L112.173 70.8766Z" fill="#272C65"/>
<path d="M106.16 84.0475C106.16 84.0475 111.826 71.3747 112.163 70.8907L112.173 70.8766L112.909 69.81C112.569 70.3701 111.829 72.0423 111.612 72.5155C111.389 73.014 111.201 73.5299 111.124 74.0649C111.059 74.4396 111.048 74.8227 111.092 75.2024C111.055 75.9417 111.368 76.6643 111.925 77.1657H111.909L111.928 77.1787L109.377 80.2911L106.69 83.4382C106.678 83.4516 106.667 83.4646 106.656 83.4773L106.16 84.0471C106.16 84.0475 106.16 84.0475 106.16 84.0475Z" fill="#F0376B"/>
<path d="M91.6511 80.7363C91.7212 80.6524 91.8362 80.5789 92.0184 80.5307C92.753 80.3377 93.1799 79.803 92.2967 79.4779C91.4136 79.1525 89.6241 79.5938 88.3889 80.1788L88.2895 80.332C89.25 81.2417 90.4408 80.812 91.6511 80.7363Z" fill="#F9A776"/>
<path d="M119.893 68.5575C118.786 68.766 113.13 68.7928 112.913 69.8423C112.913 69.8423 111.468 72.8019 111.12 74.9396C110.984 75.7676 111.302 76.6053 111.925 77.1657L113.647 78.7152C113.647 78.7152 116.169 80.5974 113.449 86.833C113.183 87.4433 113.787 87.7818 114.485 88.0925L117.08 89.3157C120.412 90.3164 122.495 91.4282 125.827 90.4275C126.469 90.2346 127.517 89.6028 128.283 88.9812C128.835 88.533 129.065 87.7985 128.882 87.1114C128.478 85.6013 124.201 82.1646 124.151 79.6887C124.008 72.5264 122.952 68.9542 119.893 68.5575Z" fill="#F1487C"/>
<path d="M123.493 90.8391C123.334 90.8391 123.178 90.8315 123.023 90.8156C123.111 90.8185 123.2 90.8199 123.29 90.8199C124.075 90.8203 124.902 90.7052 125.826 90.4275C125.915 90.4011 126.01 90.3659 126.112 90.3243C126.01 90.3659 125.915 90.4011 125.826 90.4275C124.983 90.6809 124.216 90.8391 123.493 90.8391Z" fill="#5244A4"/>
<path d="M126.112 90.3244C126.691 90.0858 127.46 89.6174 128.091 89.133C128.09 89.1326 128.09 89.1326 128.09 89.1326C127.46 89.6174 126.691 90.0858 126.112 90.3244Z" fill="#4640A0"/>
<path d="M120.237 90.3153C119.253 90.068 118.37 89.7723 117.609 89.4783C118.561 89.7773 119.416 90.076 120.237 90.3153Z" fill="#5244A4"/>
<path d="M123.29 90.82C123.2 90.82 123.111 90.8186 123.023 90.8157C123.013 90.8146 123.003 90.8135 122.992 90.8124C122.007 90.7042 121.084 90.5275 120.237 90.3153C119.416 90.076 118.562 89.7774 117.609 89.4783C115.851 88.7992 114.742 88.1298 114.524 88.0925C114.648 88.0693 114.78 88.0592 114.92 88.0592C115.533 88.0592 116.308 88.255 117.281 88.4513C118.255 88.6471 119.427 88.8433 120.837 88.8433C122.22 88.8433 123.832 88.6547 125.707 88.0925C126.506 87.7341 127.262 87.0781 126.263 86.4109C120.449 83.4998 121.428 78.0922 121.493 72.5963C121.804 72.7574 122.15 72.9091 122.538 73.0734C122.752 73.1639 123.123 73.2769 123.606 73.4051C123.935 75.0602 124.101 77.1488 124.152 79.6888C124.201 82.1647 128.478 85.6014 128.882 87.1114C128.923 87.2671 128.944 87.4253 128.944 87.5817C128.944 88.1167 128.71 88.6348 128.283 88.9813C128.221 89.0316 128.157 89.0823 128.091 89.133C127.46 89.6173 126.691 90.0858 126.112 90.3244C126.011 90.366 125.915 90.4011 125.827 90.4276C124.903 90.7052 124.075 90.8204 123.29 90.82ZM119.875 68.5857C119.874 68.5695 119.88 68.56 119.893 68.5575C119.939 68.5633 119.984 68.5698 120.029 68.5774C119.976 68.5778 119.925 68.5803 119.875 68.5857Z" fill="#F0376B"/>
<path d="M118.975 65.0328L115.172 64.7062C115.172 64.7062 115.504 66.1391 115.367 67.4537C115.534 67.5384 115.707 67.6169 115.833 67.7429C116.896 67.9558 117.958 67.8953 118.847 67.4783C118.727 66.8777 118.696 66.0548 118.975 65.0328Z" fill="#F5763C"/>
<path d="M115.833 67.743C115.707 67.617 115.534 67.5384 115.367 67.4537C115.304 68.0633 115.14 68.648 114.793 69.0513C113.7 70.3246 113.289 72.1669 115.401 72.2339C117.513 72.3009 118.881 71.2886 119.284 68.6296C119.284 68.6296 118.996 68.2277 118.847 67.4783C117.958 67.8954 116.896 67.9558 115.833 67.743Z" fill="#F68951"/>
<path d="M121.924 60.1563C121.467 63.6513 118.418 66.7796 116.643 66.5465C114.958 66.326 112.725 62.5051 113.182 59.0101C113.639 55.5151 115.822 54.042 118.236 54.3584C120.65 54.6749 122.381 56.6613 121.924 60.1563Z" fill="#F68951"/>
<path d="M116.729 52.5286C115.944 52.3769 115.115 52.3302 114.36 52.5942C113.606 52.8584 112.941 53.4844 112.808 54.2736C112.686 55.0009 113.014 55.7586 112.841 56.4755C112.63 57.3516 111.764 57.874 111.009 58.3645C110.255 58.8554 109.461 59.5693 109.536 60.4672C109.586 61.0692 110.041 61.5771 110.575 61.8577C111.109 62.1383 111.719 62.2317 112.315 62.3211C111.766 62.2512 111.247 61.8975 111.033 61.3856C110.819 60.8741 110.951 60.2221 111.383 59.8749C112.038 59.3489 112.991 59.6497 113.83 59.6265C115.221 59.5882 116.5 58.4481 116.699 57.0695C116.724 56.9041 116.736 56.7289 116.829 56.5895C117.127 56.1377 117.808 56.4606 118.34 56.5591C118.921 56.6662 119.555 56.3987 119.884 55.906C121.122 54.051 118.052 52.7842 116.729 52.5286Z" fill="#2B357D"/>
<path d="M118.994 56.1443C118.916 56.7344 119.081 57.3702 119.498 57.7945C119.759 58.0602 120.1 58.23 120.4 58.4508C120.7 58.6713 120.977 58.9757 121.008 59.3476C121.06 59.9692 120.448 60.4072 120.065 60.8996C119.535 61.5827 119.423 62.5663 119.786 63.3516C120.017 63.8526 120.425 64.2805 120.525 64.8232C120.66 65.5581 120.086 66.3463 119.346 66.4415C120.119 66.5262 120.82 66.0157 121.417 65.5161C122.008 65.0216 122.614 64.4623 122.801 63.7143C123.02 62.8328 122.601 61.9049 122.721 61.0045C122.834 60.1603 123.406 59.4377 123.559 58.5996C123.692 57.8676 123.487 57.103 123.111 56.4615C122.736 55.8196 122.2 55.2874 121.633 54.8063C120.281 53.6561 119.2 54.5967 118.994 56.1443Z" fill="#2B357D"/>
<path d="M126.493 64.4579L126.95 61.5613L124.985 57.8234L123.464 57.1688C123.236 57.0157 122.495 57.3477 122.603 57.6007C123.006 58.5463 123.778 60.6121 124.096 61.6402C124.096 61.6402 124.25 62.685 123.652 62.2126C123.053 61.7405 121.032 62.5167 121.396 63.3577C121.534 63.6752 121.879 63.5506 122.301 63.4257C122.611 63.3345 122.962 63.2429 123.302 63.3262C124.106 63.5217 123.81 65.0172 125.457 65.0172L126.493 64.4579Z" fill="#F68951"/>
<path d="M126.493 64.4579L125.457 65.0172C127.769 68.7258 128.876 70.5073 129.406 71.3614L121.131 68.7928C121.131 68.7928 118.399 67.7516 119.407 70.2463C120.097 71.9529 120.967 72.4087 122.538 73.0734C123.677 73.5549 129.269 74.675 132.442 75.289C133.662 75.5247 134.838 74.7221 135.069 73.4999C135.216 72.7215 134.942 71.9236 134.349 71.3994L126.493 64.4579Z" fill="#F1487C"/>
<path d="M129.406 71.3613L125.457 65.0172C127.768 68.7258 128.876 70.5073 129.406 71.3613Z" fill="#E898D1"/>
<path d="M132.24 72.0105L129.406 71.3614C128.876 70.5074 127.769 68.7258 125.457 65.0172L125.838 64.8116L132.24 72.0105Z" fill="#F0376B"/>
<path d="M220.955 46.5005C220.955 46.5005 221.411 48.5366 219.072 51.0429C219.072 51.0429 223.927 49.6332 225.335 46.5005H220.955Z" fill="#F5802D"/>
<path d="M227.783 47.7619H217.487C216.295 47.7619 215.33 46.7949 215.33 45.6021V39.448C215.33 38.2551 216.295 37.2881 217.487 37.2881H227.783C228.974 37.2881 229.94 38.2551 229.94 39.448V45.6021C229.94 46.7949 228.974 47.7619 227.783 47.7619Z" fill="#F5802D"/>
<path d="M219.971 42.5248C219.971 43.0715 219.528 43.5142 218.983 43.5142C218.437 43.5142 217.995 43.0715 217.995 42.5248C217.995 41.9789 218.437 41.5357 218.983 41.5357C219.528 41.5357 219.971 41.9789 219.971 42.5248Z" fill="#FFFEF2"/>
<path d="M223.622 42.5248C223.622 43.0715 223.18 43.5142 222.635 43.5142C222.089 43.5142 221.647 43.0715 221.647 42.5248C221.647 41.9789 222.089 41.5357 222.635 41.5357C223.18 41.5357 223.622 41.9789 223.622 42.5248Z" fill="#FFFEF2"/>
<path d="M227.274 42.5248C227.274 43.0715 226.832 43.5142 226.286 43.5142C225.741 43.5142 225.298 43.0715 225.298 42.5248C225.298 41.9789 225.741 41.5357 226.286 41.5357C226.832 41.5357 227.274 41.9789 227.274 42.5248Z" fill="#FFFEF2"/>
<path d="M206.16 82.652C206.048 83.4506 198.956 128.514 198.956 128.514L200.606 128.547C200.606 128.547 210.548 104.112 211.121 90.7169C211.275 87.1382 212.259 83.4101 210.774 83.0209C209.538 82.6965 206.16 82.652 206.16 82.652Z" fill="#F9A776"/>
<path d="M193.219 133.078C191.932 133.871 190.775 134.49 190.711 134.793C190.603 135.303 192.716 135.326 195.281 135.237L199.338 132.894L199.369 132.318L199.338 132.894L199.369 132.873L199.338 132.894L199.221 135.069C199.826 135.03 200.206 135.001 200.206 135.001C200.206 135.001 201.911 131.883 200.726 128.818C200.552 128.852 200.38 128.918 200.215 129.017C198.189 130.665 196.043 133.625 193.219 133.078Z" fill="#2B357D"/>
<path d="M198.956 128.514C198.956 128.514 197.574 129.902 194.976 131.893C194.425 132.315 193.808 132.715 193.219 133.078C196.043 133.625 198.189 130.665 200.215 129.017C200.38 128.918 200.552 128.852 200.726 128.818C200.686 128.715 200.644 128.612 200.597 128.509L198.956 128.514Z" fill="#F9A776"/>
<path d="M212.212 128.918C212.212 128.918 211.515 134.105 212.823 135.197C214.132 136.289 215.918 136.265 215.918 136.265C215.918 136.265 216.652 135.488 216.725 134.882C216.798 134.275 216.412 132.591 214.03 128.918H212.212Z" fill="#2B357D"/>
<path d="M207.104 82.6519C207.105 82.7297 210.12 83.2503 210.157 84.0602C210.5 91.6598 212.222 128.717 212.222 128.717L214.03 128.918C214.03 128.918 220.647 100.968 216.988 88.02C216.065 84.7589 213.224 82.7402 213.224 82.7402L211.103 82.7022L207.104 82.6519Z" fill="#F9A776"/>
<path d="M212.223 128.717C212.223 128.717 211.878 133.814 213.817 134.008C215.755 134.202 216.057 133.734 215.87 132.925C215.682 132.115 214.03 128.918 214.03 128.918L212.223 128.717Z" fill="#F9A776"/>
<path d="M216.988 88.0201C216.065 84.7586 213.224 82.7403 213.224 82.7403L211.103 82.7023L207.104 82.652C207.104 82.6581 207.123 82.6668 207.157 82.6784C206.57 82.6574 206.16 82.652 206.16 82.652C206.104 83.0495 204.32 94.626 202.54 106.16H213.182C213.182 106.16 214.677 101.793 215.191 98.36C215.351 101.782 215.38 102.376 215.558 106.16H217.685C218.288 99.5579 218.341 92.8101 216.988 88.0201Z" fill="#2B357D"/>
<path d="M218.091 98.0026C218.091 97.9624 218.091 97.9247 218.091 97.8845C218.086 95.5256 217.955 93.2691 217.654 91.2225C217.96 93.3035 218.09 95.6009 218.091 98.0026Z" fill="#A8A9DB"/>
<path d="M217.655 91.2225C217.495 90.1378 217.288 89.1115 217.027 88.1612C217.288 89.1115 217.495 90.1378 217.655 91.2225Z" fill="#969BD6"/>
<path d="M217.685 106.16H216.53H217.685C217.939 103.374 218.096 100.564 218.09 97.8846C218.09 97.9248 218.09 97.9625 218.091 98.0027C218.091 100.646 217.936 103.416 217.685 106.16Z" fill="#C57A67"/>
<path d="M217.685 106.16H216.53C217.014 97.7366 216.111 89.5109 210.621 82.7077L213.224 82.7403C213.224 82.7403 216.065 84.7586 216.988 88.0201C217.001 88.0672 217.014 88.1139 217.027 88.1613C217.288 89.1116 217.495 90.138 217.654 91.2226C217.955 93.2691 218.085 95.5257 218.09 97.8846C218.096 100.564 217.939 103.374 217.685 106.16Z" fill="#252F66"/>
<path d="M213.244 51.2508C213.244 51.2508 214.694 50.9083 215.723 53.5975C216.279 55.0499 217.529 59.3222 217.545 63.0743C217.593 74.2153 207.229 69.9825 205.916 67.6224C204.603 65.2624 201.809 63.9471 210.136 51.9405L213.244 51.2508Z" fill="#4D51AC"/>
<path d="M206.409 66.8707L198.53 78.8813L199.738 82.1816C199.738 82.1816 207.418 73.4028 208.251 71.6133C209.084 69.8231 209.579 68.88 208.953 66.8982C208.328 64.9161 206.409 66.8707 206.409 66.8707Z" fill="#EF3060"/>
<path d="M194.323 70.7565L199.761 82.1763L201.448 79.094C201.448 79.094 201.879 77.6267 195.205 69.762L194.323 70.7565Z" fill="#EF3060"/>
<path d="M194.323 70.7564L192.916 71.39C192.061 71.769 191.119 71.9113 190.19 71.802L187.432 71.4776L185.747 70.4379C185.483 70.2753 185.592 69.868 185.902 69.8601C187.061 69.8307 190.752 69.8706 190.925 69.3894C190.925 69.3894 191.267 69.2128 190.502 68.8185C189.736 68.4246 189.372 67.7487 190.4 67.6322C191.39 67.5199 193.163 68.3787 194.399 69.2812C194.445 69.3149 195.161 69.7283 195.205 69.762L194.323 70.7564Z" fill="#F9A776"/>
<path d="M213.981 64.7945C212.837 64.7859 211.739 64.3514 209.525 64.514C208.445 64.5929 206.616 65.0628 206.224 66.0102L203.883 70.3332C203.49 70.9443 203.252 72.6147 203.731 73.1621C204.365 73.8872 205.223 74.5143 205.347 75.0298L206.16 82.6519L213.224 82.7402C213.224 82.7402 219.03 68.594 213.981 64.7945Z" fill="#F1487C"/>
<path d="M213.981 64.7945C213.976 64.7941 213.972 64.7941 213.968 64.7941C213.972 64.7941 213.976 64.7941 213.981 64.7945ZM213.966 64.7941C213.962 64.7941 213.958 64.7941 213.954 64.7941C213.958 64.7941 213.962 64.7941 213.966 64.7941ZM213.953 64.7941C213.621 64.7894 213.291 64.7496 212.935 64.6996C213.291 64.7496 213.621 64.7894 213.953 64.7941Z" fill="#5049A7"/>
<path d="M213.224 82.7402L210.32 82.704C213.258 77.4329 216.355 70.9516 213.103 65.7413C212.857 65.3296 212.528 64.9386 212.134 64.5875C212.421 64.624 212.685 64.6642 212.935 64.6997C213.291 64.7497 213.621 64.7895 213.953 64.7942C213.954 64.7942 213.954 64.7942 213.954 64.7942C213.958 64.7942 213.962 64.7942 213.966 64.7942C213.967 64.7942 213.968 64.7942 213.968 64.7942C213.972 64.7942 213.977 64.7942 213.981 64.7945C215.512 65.9465 216.045 68.0499 216.044 70.4219C216.043 75.8722 213.224 82.7402 213.224 82.7402Z" fill="#F03D71"/>
<path d="M212.248 61.709C212.167 60.8565 212.161 59.8392 212.305 58.6369L209.417 60.8242C209.417 60.8242 209.567 61.8372 209.295 62.6785C210.412 63.1043 211.327 62.4128 212.248 61.709Z" fill="#F68951"/>
<path d="M209.295 62.6785C209.162 63.0905 208.93 63.4619 208.525 63.6516C207.859 63.9651 207.963 64.9727 207.432 65.2844L207.116 67.8779V69.2573L210.603 66.2771L213.244 65.0708C213.244 65.0708 212.465 64.0035 212.248 61.709C211.327 62.4128 210.412 63.1043 209.295 62.6785Z" fill="#F9A776"/>
<path d="M214.421 56.919C214.421 61.8256 207.924 61.9606 207.924 61.9606C207.924 61.9606 206.349 60.1581 206.349 57.4483C206.349 54.7386 206.349 50.8471 208.243 50.8471C212.27 50.8471 214.421 50.8688 214.421 56.919Z" fill="#F9A776"/>
<path d="M213.225 51.2509C213.225 51.2509 208.149 47.8655 206.348 50.5224C204.547 53.1794 205.617 54.7216 205.617 54.7216L206.205 54.5076C206.205 54.5076 206.105 52.965 206.652 52.3221C206.652 52.3221 206.045 54.1022 206.422 54.4877C206.422 54.4877 210.258 53.9787 211.04 54.5145C211.821 55.05 211.963 56.4608 211.963 56.4608L212.174 60.7888C212.174 60.7888 215.327 59.6072 215.33 54.5931C215.331 50.8472 213.225 51.2509 213.225 51.2509Z" fill="#4D51AC"/>
<path d="M211.963 56.4607C211.963 56.4607 212.222 54.4228 213.48 55.4231C214.738 56.4234 213.588 58.5985 212.813 58.7339C212.037 58.8689 211.668 57.5352 211.668 57.5352" fill="#F9A776"/>
<path d="M212.569 63.0742C212.569 63.0742 212.986 63.8131 214.059 64.6635L210.6 66.5366L210.965 67.3479L207.116 69.2573C207.116 69.2573 211.733 63.3461 212.569 63.0742Z" fill="white"/>
<path d="M208.525 63.6516C208.525 63.6516 206.998 66.2821 207.116 69.2573C207.116 69.2573 206.631 67.6368 206.674 66.2343L207.116 65.7163L206.905 65.2844C206.905 65.2844 207.898 64.1324 208.525 63.6516Z" fill="white"/>
<path d="M212.896 66.4001L205.017 78.4104L206.224 81.711C206.224 81.711 213.905 72.9322 214.738 71.1423C215.571 69.3525 216.066 68.409 215.44 66.4273C214.815 64.4456 212.896 66.4001 212.896 66.4001Z" fill="#F03767"/>
<path d="M194.019 78.2746L206.224 81.711L205.017 78.4104C205.017 78.4104 204.166 77.1694 193.862 76.9536L194.019 78.2746Z" fill="#F03767"/>
<path d="M138.135 47.6406C138.135 47.6406 137.679 49.6767 140.019 52.183C140.019 52.183 135.163 50.7732 133.755 47.6406H138.135Z" fill="#4D51AC"/>
<path d="M131.308 48.902H141.604C142.795 48.902 143.761 47.935 143.761 46.7421V40.588C143.761 39.3951 142.795 38.4282 141.604 38.4282H131.308C130.116 38.4282 129.15 39.3951 129.15 40.588V46.7421C129.15 47.935 130.116 48.902 131.308 48.902Z" fill="#4D51AC"/>
<path d="M139.119 43.6648C139.119 44.2115 139.562 44.6542 140.107 44.6542C140.653 44.6542 141.095 44.2115 141.095 43.6648C141.095 43.1189 140.653 42.6758 140.107 42.6758C139.562 42.6758 139.119 43.1189 139.119 43.6648Z" fill="#FFFEF2"/>
<path d="M135.468 43.6648C135.468 44.2115 135.91 44.6542 136.456 44.6542C137.001 44.6542 137.443 44.2115 137.443 43.6648C137.443 43.1189 137.001 42.6758 136.456 42.6758C135.91 42.6758 135.468 43.1189 135.468 43.6648Z" fill="#FFFEF2"/>
<path d="M131.816 43.6648C131.816 44.2115 132.258 44.6542 132.804 44.6542C133.349 44.6542 133.792 44.2115 133.792 43.6648C133.792 43.1189 133.349 42.6758 132.804 42.6758C132.258 42.6758 131.816 43.1189 131.816 43.6648Z" fill="#FFFEF2"/>
<path d="M153.13 52.2822C153.13 54.5065 151.33 56.3098 149.109 56.3098C146.888 56.3098 145.087 54.5065 145.087 52.2822C145.087 50.0579 146.888 48.2546 149.109 48.2546C151.33 48.2546 153.13 50.0579 153.13 52.2822Z" fill="#F1487C"/>
<path d="M151.09 51.8677C151.09 51.783 151.08 51.7004 151.063 51.6208C150.95 51.0966 150.485 50.7034 149.928 50.7034C149.608 50.7034 149.319 50.9568 149.108 51.1661C148.898 50.9568 148.609 50.7034 148.289 50.7034C147.732 50.7034 147.266 51.0966 147.154 51.6208C147.136 51.7004 147.127 51.783 147.127 51.8677L147.129 51.9242L147.127 51.989C147.127 53.2405 149.108 54.2552 149.108 54.2552C149.108 54.2552 151.09 53.2405 151.09 51.989L151.088 51.9242L151.09 51.8677Z" fill="white"/>
<path d="M148.32 55.7037L145.4 57.5298L146.573 53.8777L148.32 55.7037Z" fill="#F1487C"/>
<path d="M187.14 75.9689C180.261 73.8377 179.909 74.6399 179.909 74.6399L176.928 77.7023L187.285 79.3322C187.297 78.5364 187.186 76.8012 187.14 75.9689Z" fill="#212A58"/>
<path d="M187.917 76.6169C187.648 76.5322 187.391 76.4522 187.14 76.3743C187.186 77.2063 187.296 78.0321 187.284 78.8278L189.69 79.0888L187.917 76.6169Z" fill="#F68951"/>
<path d="M190.341 74.6584C190.297 74.6577 190.252 74.6558 190.21 74.6584C189.78 74.6837 189.588 74.8198 189.562 75.0009C189.826 74.8267 190.082 74.704 190.311 74.6624L190.341 74.6584Z" fill="#F9A776"/>
<path d="M190.814 74.7142C190.726 74.6461 190.572 74.6211 190.341 74.6584C190.489 74.661 190.647 74.6794 190.814 74.7142Z" fill="#F68951"/>
<path d="M190.456 76.8124C190.456 76.8124 190.672 76.597 190.636 76.3281L190.631 76.323C190.631 76.323 190.376 76.1782 190.375 75.9342C190.337 75.9056 190.295 75.8766 190.247 75.8487C189.814 75.5949 189.525 75.2536 189.561 75.0009C188.905 75.4328 188.196 76.1912 187.727 76.883L187.708 77.29C188.839 77.3077 190.274 77.2429 190.456 76.8124Z" fill="#F68951"/>
<path d="M190.247 75.8486C190.295 75.8765 190.338 75.9055 190.375 75.9341C190.375 75.8276 190.423 75.7024 190.562 75.5619C190.878 75.2437 191.015 74.8701 190.813 74.7141C190.646 74.6793 190.488 74.6608 190.341 74.6583L190.311 74.6623C190.082 74.7039 189.826 74.8266 189.562 75.0008C189.525 75.2535 189.814 75.5949 190.247 75.8486Z" fill="#F68951"/>
<path d="M193.997 76.9561C193.022 76.13 191.82 74.9248 190.813 74.7141C191.016 74.8701 190.878 75.2438 190.562 75.562C190.423 75.7024 190.375 75.8277 190.375 75.9341C190.55 76.0663 190.62 76.2028 190.637 76.328C190.672 76.597 190.457 76.8124 190.457 76.8124C190.274 77.2429 188.839 77.3077 187.708 77.2899C187.603 77.2881 187.498 77.286 187.399 77.2834C187.089 77.2744 186.958 77.6748 187.213 77.8518L187.671 78.1693L188.839 78.9817L190.643 79.4708L191.235 79.6315L194.032 78.2605L193.997 76.9561Z" fill="#F9A776"/>
<path d="M171.917 71.6778L176.928 77.7023L180.251 74.4918L175.431 68.6653C174.242 69.3304 172.863 70.6789 171.917 71.6778Z" fill="#212A58"/>
<path d="M176.333 69.8691L172.162 64.3308C170.622 62.6463 168.599 62.5891 167.659 64.3C167.201 65.1348 167.279 66.3947 167.838 67.1654L173.509 73.5172C174.317 72.0575 175.145 70.5348 176.333 69.8691Z" fill="#212A58"/>
<path d="M173.512 129.382L174.776 134.22L178.489 133.072L176.935 126.22L173.512 129.382Z" fill="#F9A776"/>
<path d="M178.422 132.719L185.989 135.3C186.434 135.451 186.726 135.821 186.726 136.232C186.726 136.786 186.203 137.234 185.558 137.234H174.95C174.95 137.234 173.907 135.211 174.857 134.14L178.422 132.719Z" fill="#4D51AC"/>
<path d="M178.355 130.791L172.251 87.6012H165.63C162.64 91.8901 173.534 131.216 173.534 131.216L178.355 130.791Z" fill="#F9AB41"/>
<path d="M173.05 129.44C173.041 129.439 173.031 129.439 173.021 129.438C172.448 127.378 171.808 124.864 171.16 122.206C171.944 125.292 172.622 127.849 173.05 129.44Z" fill="#F7DEBB"/>
<path d="M173.534 131.216C173.371 130.673 173.199 130.077 173.022 129.438C173.031 129.439 173.041 129.439 173.05 129.44C173.356 130.572 173.534 131.216 173.534 131.216L173.981 131.177L173.534 131.216Z" fill="#D8CDBF"/>
<path d="M173.981 131.177L175.418 131.05V131.051L173.981 131.177Z" fill="#F7985E"/>
<path d="M173.534 131.216C173.534 131.216 173.356 130.572 173.051 129.44C172.622 127.848 171.944 125.292 171.16 122.206C168.936 113.085 166.621 102.272 166.621 102.272L167.315 98.5406L168.142 94.0956L175.418 131.051L173.981 131.177L173.534 131.216Z" fill="#F89A39"/>
<path d="M149.382 125.123L146.225 128.996L149.341 131.323L153.95 126.027L149.382 125.123Z" fill="#F9A776"/>
<path d="M147.369 127.098L151.716 129.229L163.55 115.495L164.335 114.563C162.495 113.436 159.65 113.122 157.98 111.75C152.295 119.725 147.369 127.098 147.369 127.098Z" fill="#F9AB41"/>
<path d="M150.578 130.202C150.578 130.202 151.322 133.271 155.656 134.519C157.658 135.096 155.791 136.848 155.791 136.848H150.088L145.132 132.38C145.132 132.38 145.36 127.936 147.218 127.911C147.218 127.911 148.863 129.441 150.578 130.202Z" fill="#4D51AC"/>
<path d="M161.233 87.6012C159.662 89.8534 158.412 101.767 157.579 112.575L157.578 112.585C159.715 112.896 162.178 114.55 164.335 114.563L169.056 89.1861L161.233 87.6012Z" fill="#F9AB41"/>
<path d="M151.716 129.229L151.329 129.039L151.716 129.229Z" fill="#D8CDBF"/>
<path d="M164.335 114.563L166.279 104.112L166.279 104.111L164.335 114.563Z" fill="#F7DEBB"/>
<path d="M151.329 129.039L150.088 128.431L151.329 129.039Z" fill="#F7985E"/>
<path d="M151.716 129.229L151.329 129.039L150.088 128.431L162.552 114.258C163.16 114.439 163.758 114.559 164.335 114.563L151.716 129.229Z" fill="#F89A39"/>
<path d="M164.334 114.563C163.758 114.559 163.16 114.439 162.552 114.258L162.775 114.005L166.278 104.112L164.334 114.563Z" fill="#F89A39"/>
<path d="M170.057 62.9562C166.636 61.9592 165.863 61.2134 163.655 61.7622C162.663 62.0088 159.688 63.3226 158.942 63.8117C157.962 64.4543 157.262 65.7022 157.265 66.8751C157.287 74.1389 162.287 80.5533 162.079 83.4451L161.233 87.6012L172.575 89.899C172.575 89.8986 174.566 65.0122 170.057 62.9562Z" fill="#2B357D"/>
<path d="M164.312 88.2253L161.233 87.6012L164.312 88.225C164.312 88.2253 164.312 88.2253 164.312 88.2253Z" fill="#969BD6"/>
<path d="M164.313 88.225L161.233 87.6012L162.079 83.4451C162.084 83.3858 162.086 83.3249 162.085 83.2627C162.084 80.2897 157.287 73.9901 157.265 66.8752C157.265 66.8704 157.265 66.8657 157.265 66.8614C157.267 65.6924 157.966 64.4517 158.942 63.8117C158.984 63.7842 159.035 63.7534 159.09 63.7212C157.83 69.4886 162.3 74.4314 164.468 79.0852C165.777 82.199 165.317 85.2325 164.313 88.2253" fill="#252F66"/>
<path d="M148.258 70.2909C147.878 69.8691 147.467 69.4191 147.016 68.93L143.84 68.3442L146.245 72.2896C147.217 72.1705 147.686 71.092 148.258 70.2909Z" fill="#F68951"/>
<path d="M143.01 69.4668L139.633 67.5086C139.372 67.3566 139.241 67.0503 139.314 66.7563L139.57 65.7123C139.67 65.3039 140.112 65.0831 140.498 65.2485L143.513 66.5402C143.513 66.5402 144.744 66.3567 145.46 66.5402C145.46 66.5402 145.798 65.6536 146.059 64.9328C146.32 64.212 146.78 64.2899 147.025 65.2072C147.27 66.125 147.486 68.1498 146.786 69.338L145.269 70.6858L144.771 69.7141L143.01 69.4668Z" fill="#F68951"/>
<path d="M158.051 72.7823L151.029 80.0207L149.647 76.029L154.15 69.9958C155.436 70.5736 156.982 71.8382 158.051 72.7823Z" fill="#F9A776"/>
<path d="M151.293 73.8246L157.126 65.2243C158.561 63.345 160.643 63.1006 161.769 64.7801C162.319 65.599 161.996 68.6418 161.49 69.4882L151.029 80.0207C150.062 78.5885 152.579 74.4024 151.293 73.8246Z" fill="#212A58"/>
<path d="M148.586 69.8684C148.013 70.6696 146.626 72.016 145.653 72.1347L150.957 79.9994L152.545 75.7416C152.545 75.7416 153.073 74.843 148.586 69.8684Z" fill="#212A58"/>
<path d="M166.73 61.0664C165.083 61.2561 163.455 60.8966 162.38 59.618C162.3 61.57 162.056 62.3096 162.056 62.3096L167.641 62.5949C167.119 62.2883 166.853 61.7087 166.73 61.0664Z" fill="#F68951"/>
<path d="M167.164 62.1579C167.164 62.1579 168.594 63.1198 167.445 63.4044C166.294 63.6889 163.195 64.3587 162.056 62.3096L164.434 60.3315L166.328 61.5265L167.164 62.1579Z" fill="#F68951"/>
<path d="M166.73 61.0664C166.474 59.7316 166.842 58.1249 166.842 58.1249L162.359 56.3901C162.418 57.7184 162.414 58.7784 162.38 59.6179C163.455 60.8966 165.083 61.2561 166.73 61.0664Z" fill="#F5763C"/>
<path d="M160.767 54.9973C160.767 59.9817 167.278 59.4926 167.278 59.4926C167.278 59.4926 168.967 58.2878 168.967 55.535C168.967 52.7821 168.967 48.8291 167.043 48.8291C162.952 48.8291 160.767 48.8512 160.767 54.9973Z" fill="#F68951"/>
<path d="M160.633 54.1249C160.517 53.7509 161.183 54.7233 161.55 54.5847C161.915 54.446 162.14 54.0575 162.195 53.6694C162.25 53.2817 162.167 52.8889 162.084 52.5059C162.191 52.6663 162.433 52.6873 162.603 52.5964C162.774 52.5052 162.884 52.3325 162.967 52.1583C163.23 51.6113 163.304 50.9749 163.172 50.3819C163.626 50.8659 164.336 51.0947 164.988 50.9669C165.639 50.8391 166.21 50.3587 166.449 49.7386C166.919 50.3156 167.687 50.5875 168.43 50.6078C168.919 50.6212 169.427 50.5296 169.827 50.2465C170.226 49.963 170.493 49.4616 170.403 48.9798C170.356 48.7263 170.219 48.4986 170.057 48.2981C169.317 47.3752 168.193 46.5734 167.06 46.9086C167.103 46.2269 166.702 45.8953 166.204 45.4283C165.707 44.9613 164.895 44.8139 164.319 45.1814C163.704 45.5749 163.513 45.7545 163.119 46.3703C162.683 45.9471 160.447 45.6176 159.892 45.8649C159.337 46.1121 158.925 46.7153 159.01 47.3177C159.104 47.986 159.214 48.1858 159.417 48.8291C158.647 48.676 158.29 49.2024 157.821 49.832C157.351 50.4612 157.396 51.46 158.001 51.9603C158.258 52.1728 158.581 52.2836 158.884 52.4215C158.968 52.4596 159.058 52.5092 159.085 52.5971C159.114 52.6949 159.051 52.7944 158.994 52.8791C158.457 53.6705 158.152 54.6183 158.126 55.5752C158.123 55.7374 158.127 55.9053 158.197 56.0516C158.331 56.3336 158.669 56.4589 158.981 56.4712C159.293 56.4839 159.603 56.4114 159.915 56.4234C160.015 56.427 160.121 56.4415 160.203 56.5009C160.368 56.6211 160.369 56.8633 160.354 57.0674C160.322 57.5102 160.29 57.9533 160.257 58.3961C160.239 58.6433 160.223 58.9018 160.322 59.1288C160.48 59.4912 160.885 59.6744 161.269 59.7682C161.794 59.897 162.037 60.1689 162.375 59.7472C162.375 59.7472 162.692 59.2693 162.405 58.3432C162.092 57.3303 161.153 55.796 160.633 54.1249Z" fill="#EF3060"/>
<path d="M161.996 54.8413C161.996 54.8413 161.736 52.4129 160.824 52.9773C159.912 53.5413 159.97 56.4723 162.153 56.3901C164.338 56.3083 163.972 55.771 163.972 55.771L161.996 54.8413Z" fill="#F68951"/>
<path d="M141.508 60.1661L140.737 70.5483L145.515 71.0139L146.1 61.0107L141.508 60.1661Z" fill="#2B357D"/>
<path d="M142.155 60.8597L141.541 69.9958L145.059 70.3249L145.622 61.4708L142.155 60.8597Z" fill="#9FBFE8"/>
<path d="M141.872 65.0693L145.482 61.4541L145.622 61.4708L145.517 63.1176L141.772 66.8693L141.872 65.0693Z" fill="#C1DCF4"/>
<path d="M141.703 67.5243L145.478 63.7433L145.453 63.9257L145.348 65.5726L141.602 69.3239L141.703 67.5243Z" fill="#C1DCF4"/>
</svg>
