<svg width="48" height="48" viewBox="0 0 48 48" fill="none" xmlns="http://www.w3.org/2000/svg">
<rect width="48" height="48" rx="6" fill="#EC1E37"/>
<path d="M19.4927 37.9996C21.5658 38.0157 23.6208 37.525 25.5385 36.5561C27.4563 35.5873 29.1986 34.1594 30.6645 32.3555C32.1304 30.5515 33.2906 28.4073 34.0779 26.0473C34.8653 23.6873 35.2639 21.1583 35.2509 18.6072V17.7161C36.3255 16.7472 37.2556 15.5566 38 14.1971C36.9881 14.7417 35.9175 15.1029 34.8214 15.2694C35.9835 14.4173 36.8554 13.0759 37.2759 11.4936C36.1929 12.2932 35.0052 12.8554 33.7659 13.155C32.9313 12.0605 31.8268 11.3351 30.6234 11.091C29.42 10.8468 28.1848 11.0975 27.1089 11.8042C26.0329 12.511 25.1762 13.6344 24.6713 15.0007C24.1665 16.367 24.0415 17.8999 24.3159 19.3624C22.1142 19.2294 19.96 18.5272 17.9934 17.3015C16.0269 16.0759 14.2922 14.3543 12.9023 12.2488C12.2014 13.7458 11.989 15.5146 12.308 17.1971C12.627 18.8795 13.4536 20.35 14.6205 21.3107C13.7597 21.2698 12.9188 20.9801 12.1659 20.4649V20.5404C12.1583 22.1048 12.5865 23.6252 13.3793 24.8482C14.1721 26.0712 15.2816 26.9229 16.5227 27.2613C15.7221 27.5263 14.8834 27.5676 14.0682 27.3821C14.4275 28.7163 15.1134 29.881 16.0319 30.7166C16.9503 31.5521 18.0563 32.0175 19.1982 32.049C17.2459 33.983 14.8194 35.0475 12.3132 35.0696C11.8738 35.054 11.4354 35.0086 11 34.9337C13.5367 36.9226 16.4849 37.9712 19.4927 37.9543" fill="white"/>
</svg>
