<svg width="32" height="32" viewBox="0 0 32 32" fill="none" xmlns="http://www.w3.org/2000/svg">
<path d="M1.47266 30.4484L3.51891 23.015C2.25713 20.8346 1.59338 18.362 1.59428 15.8454C1.59428 7.93439 8.06228 1.49878 15.9968 1.49878C19.8533 1.49878 23.4665 2.99543 26.1853 5.7036C28.904 8.4119 30.3995 12.0182 30.3995 15.8525C30.3995 23.7633 23.9315 30.1989 15.9969 30.1989H15.9898C13.5785 30.1989 11.2103 29.5932 9.10678 28.4529L1.47266 30.4486V30.4484Z" fill="url(#paint0_linear)"/>
<path d="M0.950317 30.9686L3.06807 23.2715C1.76594 21.0195 1.07182 18.4608 1.07907 15.8453C1.07907 7.64932 7.77594 0.985596 16.0041 0.985596C19.9963 0.985596 23.7453 2.53205 26.5573 5.34009C29.3762 8.14812 30.9288 11.8827 30.9217 15.8524C30.9217 24.0484 24.2248 30.7121 15.9967 30.7121H15.9897C13.4975 30.7111 11.0452 30.0888 8.85632 28.9018L0.950317 30.9687V30.9686ZM9.22832 26.2078L9.67907 26.4786C11.5823 27.6047 13.7644 28.1963 15.9897 28.2034H15.9968C22.8296 28.2034 28.3961 22.6658 28.3961 15.8524C28.3961 12.5527 27.1082 9.4524 24.7686 7.11478C22.4289 4.77716 19.3094 3.4943 15.9968 3.4943C9.15682 3.4943 3.59044 9.03191 3.59044 15.8453C3.59044 18.1758 4.24144 20.4493 5.48644 22.4163L5.77982 22.8867L4.52769 27.4408L9.22832 26.2078Z" fill="white"/>
<path d="M12.2693 9.62345C11.9902 9.00337 11.6968 8.98905 11.4322 8.98195C11.2175 8.97485 10.9672 8.97485 10.7167 8.97485C10.4663 8.97485 10.0655 9.06749 9.72217 9.43804C9.37867 9.80872 8.41992 10.7067 8.41992 12.5384C8.41992 14.3628 9.75792 16.1303 9.94392 16.3797C10.1299 16.6292 12.5268 20.4991 16.3117 21.9886C19.4598 23.2288 20.1038 22.9793 20.7834 22.9152C21.4703 22.851 22.9872 22.0172 23.3019 21.1477C23.6095 20.2782 23.6096 19.537 23.5166 19.3802C23.4236 19.2233 23.1732 19.1308 22.8011 18.9454C22.4291 18.7601 20.5974 17.8621 20.254 17.7339C19.9105 17.6056 19.6602 17.5486 19.4169 17.9192C19.1664 18.2897 18.451 19.1236 18.2363 19.3731C18.0217 19.6225 17.7999 19.651 17.4278 19.4658C17.0558 19.2805 15.8538 18.8884 14.43 17.6198C13.321 16.6363 12.5698 15.4176 12.355 15.047C12.1404 14.6765 12.3337 14.4767 12.5197 14.2916C12.6842 14.1276 12.8917 13.8568 13.0778 13.643C13.2638 13.4292 13.3282 13.2724 13.4498 13.0229C13.5714 12.7735 13.5142 12.5597 13.4212 12.3745C13.3282 12.189 12.5984 10.3575 12.2693 9.62345Z" fill="white"/>
<defs>
<linearGradient id="paint0_linear" x1="15.9355" y1="30.4465" x2="15.9355" y2="1.49704" gradientUnits="userSpaceOnUse">
<stop stop-color="#20B038"/>
<stop offset="1" stop-color="#60D66A"/>
</linearGradient>
</defs>
</svg>
